<svg width="57" height="57" viewBox="0 0 57 57" fill="none" xmlns="http://www.w3.org/2000/svg">
<g clip-path="url(#clip0_7101_2057)">
<path d="M31.0187 5.34374C30.3506 4.67588 29.4446 4.30069 28.5 4.30069C27.5553 4.30069 26.6494 4.67588 25.9813 5.34374L2.30137 29.0201C2.13575 29.1857 2.00438 29.3823 1.91475 29.5987C1.82512 29.8151 1.77899 30.047 1.77899 30.2812C1.77899 30.5155 1.82512 30.7474 1.91475 30.9638C2.00438 31.1801 2.13575 31.3768 2.30137 31.5424C2.63584 31.8768 3.08948 32.0647 3.56249 32.0647C3.7967 32.0647 4.02862 32.0186 4.24501 31.929C4.46139 31.8394 4.658 31.708 4.82362 31.5424L7.12499 29.2374V48.0937C7.12499 49.511 7.68799 50.8702 8.69014 51.8723C9.69229 52.8745 11.0515 53.4375 12.4687 53.4375H26.7187C27.1912 53.4375 27.6442 53.2498 27.9783 52.9158C28.3123 52.5817 28.5 52.1287 28.5 51.6562C28.5 51.1838 28.3123 50.7308 27.9783 50.3967C27.6442 50.0627 27.1912 49.875 26.7187 49.875H12.4687C11.9963 49.875 11.5433 49.6873 11.2092 49.3533C10.8752 49.0192 10.6875 48.5662 10.6875 48.0937V25.6749L28.5 7.86243L52.1764 31.5424C52.5108 31.8768 52.9645 32.0647 53.4375 32.0647C53.9105 32.0647 54.3641 31.8768 54.6986 31.5424C55.0331 31.2079 55.221 30.7543 55.221 30.2812C55.221 29.8082 55.0331 29.3546 54.6986 29.0201L46.3125 20.6376V8.90624C46.3125 8.43382 46.1248 7.98076 45.7908 7.64671C45.4567 7.31266 45.0037 7.12499 44.5312 7.12499H40.9687C40.4963 7.12499 40.0433 7.31266 39.7092 7.64671C39.3752 7.98076 39.1875 8.43382 39.1875 8.90624V13.5126L31.0187 5.34374Z" fill="#309C54"/>
<path d="M57 44.5312C57 47.8382 55.6863 51.0096 53.348 53.348C51.0096 55.6863 47.8382 57 44.5312 57C41.2243 57 38.0529 55.6863 35.7145 53.348C33.3762 51.0096 32.0625 47.8382 32.0625 44.5312C32.0625 41.2243 33.3762 38.0529 35.7145 35.7145C38.0529 33.3762 41.2243 32.0625 44.5312 32.0625C47.8382 32.0625 51.0096 33.3762 53.348 35.7145C55.6863 38.0529 57 41.2243 57 44.5312ZM44.5312 37.4062C44.0588 37.4062 43.6058 37.5939 43.2717 37.928C42.9377 38.262 42.75 38.7151 42.75 39.1875V42.75H39.1875C38.7151 42.75 38.262 42.9377 37.928 43.2717C37.5939 43.6058 37.4062 44.0588 37.4062 44.5312C37.4062 45.0037 37.5939 45.4567 37.928 45.7908C38.262 46.1248 38.7151 46.3125 39.1875 46.3125H42.75V49.875C42.75 50.3474 42.9377 50.8005 43.2717 51.1345C43.6058 51.4686 44.0588 51.6562 44.5312 51.6562C45.0037 51.6562 45.4567 51.4686 45.7908 51.1345C46.1248 50.8005 46.3125 50.3474 46.3125 49.875V46.3125H49.875C50.3474 46.3125 50.8005 46.1248 51.1345 45.7908C51.4686 45.4567 51.6562 45.0037 51.6562 44.5312C51.6562 44.0588 51.4686 43.6058 51.1345 43.2717C50.8005 42.9377 50.3474 42.75 49.875 42.75H46.3125V39.1875C46.3125 38.7151 46.1248 38.262 45.7908 37.928C45.4567 37.5939 45.0037 37.4062 44.5312 37.4062Z" fill="#309C54"/>
</g>
<defs>
<clipPath id="clip0_7101_2057">
<rect width="57" height="57" fill="white"/>
</clipPath>
</defs>
</svg>
