<svg width="200" height="54" viewBox="0 0 200 54" fill="none" xmlns="http://www.w3.org/2000/svg">
<path d="M33.6297 30.6771L16.7156 26.8412C14.5986 26.3632 12.7128 25.1658 11.38 23.4529C10.0471 21.7401 9.34956 19.618 9.40635 17.4484C9.46314 15.2788 10.2707 13.196 11.6914 11.5553C13.112 9.91453 15.0578 8.81733 17.197 8.45078C19.3361 8.08422 21.5362 8.471 23.4221 9.54516C25.308 10.6193 26.7629 12.3144 27.5388 14.3413C28.3147 16.3682 28.3635 18.6015 27.6769 20.6603C26.9903 22.7192 25.6108 24.4762 23.7737 25.6318C23.7383 25.6582 23.711 25.6941 23.6951 25.7353C23.6792 25.7766 23.6752 25.8215 23.6837 25.8649C23.6922 25.9083 23.7128 25.9484 23.7431 25.9806C23.7734 26.0128 23.8121 26.0358 23.8549 26.0469L31.3914 27.7528C31.4791 27.7731 31.5709 27.7678 31.6558 27.7374C31.7406 27.707 31.8149 27.6528 31.8697 27.5813C33.6614 25.2147 34.7768 22.4061 35.0968 19.4551C35.4169 16.5041 34.9296 13.5217 33.6869 10.826C32.4443 8.13038 30.4929 5.82277 28.0412 4.14955C25.5895 2.47632 22.7294 1.50027 19.7663 1.3256H19.0623C15.6068 1.26803 12.2027 2.16678 9.22598 3.92257C6.24926 5.67836 3.81584 8.22283 2.19456 11.2749C0.573271 14.3269 -0.172774 17.7678 0.038846 21.2172C0.250466 24.6667 1.41151 27.9905 3.39371 30.8215L18.4666 52.3478C18.4993 52.3925 18.542 52.4289 18.5915 52.454C18.6409 52.4791 18.6955 52.4922 18.7509 52.4922C18.8063 52.4922 18.861 52.4791 18.9104 52.454C18.9598 52.4289 19.0025 52.3925 19.0352 52.3478L33.8644 31.2186C33.8967 31.1716 33.9171 31.1174 33.9238 31.0607C33.9306 31.0041 33.9234 30.9466 33.903 30.8933C33.8825 30.84 33.8495 30.7925 33.8066 30.7548C33.7637 30.7172 33.7123 30.6905 33.6568 30.6771H33.6297Z" fill="#FFC627"/>
<path d="M47.5021 34.8198V39.2605C47.5021 40.6143 48.0437 41.2371 49.3975 41.2371C50.7514 41.2371 51.2929 40.5511 51.2929 39.2605V34.8198H52.1955V39.0078C52.1955 40.9844 51.4915 42.0043 49.3614 42.0043C47.2313 42.0043 46.5273 41.0566 46.5273 39.107V34.8198H47.5021Z" fill="#707C7C"/>
<path d="M57.5478 37.6448L60.6346 41.8508H59.4522L56.907 38.2405L55.7427 39.3507V41.8237H54.8401V34.7927H55.7427V38.2766L59.3529 34.7927H60.5714L57.5478 37.6448Z" fill="#707C7C"/>
<path d="M65.5805 34.8198C66.9073 34.8198 67.9452 35.2531 67.9452 36.7694C67.9584 37.147 67.8472 37.5184 67.6287 37.8266C67.4102 38.1348 67.0964 38.3627 66.7358 38.4752C67.7196 38.6828 67.7647 39.3778 67.8008 40.2082C67.7471 40.7887 67.8902 41.3704 68.207 41.8599H67.1419C66.9593 41.3636 66.8794 40.8355 66.9073 40.3074C66.8441 39.1251 66.5372 38.8182 65.2646 38.8182H63.4595V41.8599H62.5569V34.8289L65.5805 34.8198ZM63.4143 38.0691H65.1653C66.0679 38.0691 66.9704 37.9788 66.9704 36.8235C66.9704 35.6682 66.2033 35.6051 65.3729 35.6051H63.3782L63.4143 38.0691Z" fill="#707C7C"/>
<path d="M76.3393 41.8508H75.3013L74.5161 39.6937H71.5647L70.7614 41.8508H69.7776L72.5485 34.8198H73.5774L76.3393 41.8508ZM73.0449 35.7044L71.8264 38.9536H74.2363L73.0449 35.7044Z" fill="#707C7C"/>
<path d="M79.1282 41.8508H78.2256V34.8198H79.1282V41.8508Z" fill="#707C7C"/>
<path d="M82.7294 34.8198L86.4479 40.5331V34.8198H87.3505V41.8508H86.3035L82.603 36.2369V41.8779H81.7004V34.8469L82.7294 34.8198Z" fill="#707C7C"/>
<path d="M94.8058 35.6321H90.8615V37.8344H94.544V38.6196H90.8615V41.0475H94.8509V41.8599H89.9319V34.8289H94.8058V35.6321Z" fill="#707C7C"/>
<path d="M97.1254 37.726L97.0261 35.0183H97.667L97.5767 37.726H97.1254Z" fill="#707C7C"/>
<path d="M104.463 36.8866C104.355 35.8667 103.75 35.4515 102.712 35.4515C101.674 35.4515 101.124 35.8757 101.124 36.6158C101.124 37.3559 101.945 37.5725 103.028 37.7982C104.111 38.0238 105.636 38.3939 105.636 39.8741C105.636 41.3543 104.246 42.0132 102.929 42.0132C101.25 42.0132 100.013 41.2279 100.013 39.5311H100.916C100.916 40.8037 101.882 41.246 103.01 41.246C103.831 41.246 104.761 40.9572 104.761 39.9644C104.761 38.9715 103.858 38.8813 102.712 38.6105C101.566 38.3397 100.266 38.1682 100.266 36.688C100.266 35.2078 101.548 34.6843 102.811 34.6843C104.301 34.6843 105.33 35.3793 105.393 36.8866H104.463Z" fill="#707C7C"/>
<path d="M112.487 34.8198L116.206 40.5331V34.8198H117.108V41.8508H116.061L112.388 36.2369V41.8779H111.485V34.8469L112.487 34.8198Z" fill="#707C7C"/>
<path d="M125.484 41.8508H124.446L123.67 39.6937H120.718L119.915 41.8508H118.931L121.702 34.8198H122.749L125.484 41.8508ZM122.19 35.7044L120.971 38.9536H123.381L122.19 35.7044Z" fill="#707C7C"/>
<path d="M131.441 35.6321H129.076V41.8599H128.174V35.6321H125.809V34.8198H131.459L131.441 35.6321Z" fill="#707C7C"/>
<path d="M134.275 41.8508H133.373V34.8198H134.275V41.8508Z" fill="#707C7C"/>
<path d="M143.265 38.2768C143.265 40.3436 142.127 42.0224 139.898 42.0224C137.669 42.0224 136.531 40.3075 136.531 38.2587C136.531 36.0655 137.849 34.6484 139.889 34.6484C142.073 34.6484 143.265 36.1828 143.265 38.2768ZM137.452 38.3219C137.452 40.0819 138.409 41.2191 139.898 41.2191C141.387 41.2191 142.326 40.0729 142.326 38.3219C142.326 36.5709 141.369 35.4607 139.88 35.4607C138.228 35.4607 137.452 36.8236 137.452 38.3219Z" fill="#707C7C"/>
<path d="M146.514 34.8198L150.232 40.5331V34.8198H151.135V41.8508H150.088L146.387 36.2098V41.8508H145.485V34.8198H146.514Z" fill="#707C7C"/>
<path d="M159.511 41.8508H158.473L157.697 39.6937H154.745L153.942 41.8508H152.958L155.729 34.8198H156.776L159.511 41.8508ZM156.217 35.7044L154.998 38.9536H157.408L156.217 35.7044Z" fill="#707C7C"/>
<path d="M166.018 41.8508H161.352V34.8198H162.255V41.0475H165.991L166.018 41.8508Z" fill="#707C7C"/>
<path d="M174.493 34.8198C175.838 34.8198 176.831 35.3794 176.831 36.8416C176.831 38.3037 175.802 38.9626 174.43 38.9626H172.526V41.8508H171.623V34.8198H174.493ZM172.526 38.1864H174.331C175.234 38.1864 175.92 37.9427 175.92 36.9048C175.92 35.8668 175.116 35.6231 174.196 35.6231H172.535L172.526 38.1864Z" fill="#707C7C"/>
<path d="M185.387 38.2768C185.387 40.3436 184.25 42.0224 182.021 42.0224C179.792 42.0224 178.654 40.3075 178.654 38.2587C178.654 36.0655 179.972 34.6484 182.012 34.6484C184.187 34.6484 185.387 36.1828 185.387 38.2768ZM179.575 38.3219C179.575 40.0819 180.532 41.2191 182.021 41.2191C183.51 41.2191 184.449 40.0729 184.449 38.3219C184.449 36.5709 183.492 35.4607 182.003 35.4607C180.342 35.4607 179.575 36.8236 179.575 38.3219Z" fill="#707C7C"/>
<path d="M191.669 36.8866C191.561 35.8667 190.956 35.4515 189.918 35.4515C188.88 35.4515 188.33 35.8757 188.33 36.6158C188.33 37.3559 189.151 37.5725 190.234 37.7982C191.317 38.0238 192.843 38.3939 192.843 39.8741C192.843 41.3543 191.453 42.0132 190.135 42.0132C188.456 42.0132 187.22 41.2279 187.22 39.5311H188.122C188.122 40.8037 189.088 41.246 190.216 41.246C191.038 41.246 191.967 40.9572 191.967 39.9644C191.967 38.9715 191.065 38.8813 189.918 38.6105C188.772 38.3397 187.472 38.1682 187.472 36.688C187.472 35.2078 188.754 34.6843 190.018 34.6843C191.507 34.6843 192.536 35.3793 192.599 36.8866H191.669Z" fill="#707C7C"/>
<path d="M199.937 35.6321H197.572V41.8599H196.669V35.6321H194.305V34.8198H199.937V35.6321Z" fill="#707C7C"/>
<path d="M44.6952 11.8042C44.6879 11.7468 44.6937 11.6884 44.7125 11.6336C44.7312 11.5788 44.7622 11.5289 44.8032 11.488C44.8441 11.447 44.8939 11.416 44.9488 11.3973C45.0036 11.3786 45.062 11.3727 45.1194 11.38H47.7639C47.8214 11.3727 47.8798 11.3786 47.9346 11.3973C47.9894 11.416 48.0392 11.447 48.0802 11.488C48.1212 11.5289 48.1522 11.5788 48.1709 11.6336C48.1896 11.6884 48.1955 11.7468 48.1882 11.8042V20.5321C48.1882 22.969 49.542 24.711 52.0421 24.711C54.5422 24.711 55.9232 23.0593 55.9232 20.5321V11.8042C55.9158 11.7468 55.9217 11.6884 55.9404 11.6336C55.9591 11.5788 55.9901 11.5289 56.0311 11.488C56.0721 11.447 56.1219 11.416 56.1767 11.3973C56.2315 11.3786 56.2899 11.3727 56.3474 11.38H58.9919C59.0493 11.3727 59.1077 11.3786 59.1626 11.3973C59.2174 11.416 59.2672 11.447 59.3081 11.488C59.3491 11.5289 59.3801 11.5788 59.3989 11.6336C59.4176 11.6884 59.4235 11.7468 59.4161 11.8042V20.5591C59.4161 24.8012 56.5911 28.0234 52.0421 28.0234C47.4932 28.0234 44.7042 24.8012 44.7042 20.5591L44.6952 11.8042Z" fill="#383A35"/>
<path d="M66.2034 11.38C66.2609 11.3727 66.3192 11.3786 66.3741 11.3973C66.4289 11.416 66.4787 11.447 66.5197 11.488C66.5606 11.5289 66.5916 11.5788 66.6104 11.6336C66.6291 11.6884 66.635 11.7468 66.6276 11.8042V18.3027L73.3969 11.6237C73.6221 11.4533 73.8999 11.3671 74.1821 11.38H77.8556C78.1263 11.38 78.2166 11.6237 78.009 11.8313L70.7885 18.5735L78.4332 27.3284C78.6408 27.536 78.5234 27.7797 78.2527 27.7797H74.6424C74.503 27.7915 74.3628 27.7707 74.2327 27.7191C74.1027 27.6674 73.9865 27.5862 73.8933 27.4818L68.3876 20.6223L66.5825 22.0033V27.3555C66.5898 27.4129 66.584 27.4713 66.5652 27.5261C66.5465 27.581 66.5155 27.6308 66.4745 27.6717C66.4336 27.7127 66.3838 27.7437 66.3289 27.7624C66.2741 27.7811 66.2157 27.7871 66.1583 27.7797H63.5589C63.5014 27.7871 63.443 27.7811 63.3882 27.7624C63.3334 27.7437 63.2836 27.7127 63.2426 27.6717C63.2017 27.6308 63.1706 27.581 63.1519 27.5261C63.1332 27.4713 63.1273 27.4129 63.1347 27.3555V11.8042C63.1273 11.7468 63.1332 11.6884 63.1519 11.6336C63.1706 11.5788 63.2017 11.5289 63.2426 11.488C63.2836 11.447 63.3334 11.416 63.3882 11.3973C63.443 11.3786 63.5014 11.3727 63.5589 11.38H66.2034Z" fill="#383A35"/>
<path d="M88.56 11.38C92.1703 11.38 95.0044 13.9704 95.0044 17.3641C95.0069 18.3819 94.7413 19.3824 94.2343 20.2649C93.7272 21.1475 92.9967 21.8809 92.1161 22.3914L94.7065 27.3555C94.734 27.4002 94.7483 27.4518 94.7478 27.5043C94.7473 27.5568 94.7321 27.6081 94.7039 27.6523C94.6756 27.6965 94.6355 27.7319 94.5881 27.7545C94.5407 27.777 94.4879 27.7857 94.4358 27.7797H91.4844C91.375 27.7875 91.2657 27.7636 91.1696 27.7108C91.0735 27.6579 90.9948 27.5784 90.9428 27.4818L88.9211 23.3842C88.7618 23.3965 88.6019 23.3965 88.4427 23.3842H84.2277V27.3284C84.2351 27.3859 84.2292 27.4442 84.2105 27.4991C84.1917 27.5539 84.1607 27.6037 84.1198 27.6447C84.0788 27.6856 84.029 27.7166 83.9742 27.7354C83.9193 27.7541 83.861 27.76 83.8035 27.7526H81.159C81.1015 27.76 81.0431 27.7541 80.9883 27.7354C80.9335 27.7166 80.8837 27.6856 80.8427 27.6447C80.8018 27.6037 80.7707 27.5539 80.752 27.4991C80.7333 27.4442 80.7274 27.3859 80.7348 27.3284V11.8042C80.7274 11.7468 80.7333 11.6884 80.752 11.6336C80.7707 11.5788 80.8018 11.5289 80.8427 11.488C80.8837 11.447 80.9335 11.416 80.9883 11.3973C81.0431 11.3786 81.1015 11.3727 81.159 11.38H88.56ZM88.56 20.1079C88.9356 20.1418 89.314 20.0969 89.6712 19.9761C90.0284 19.8553 90.3564 19.6613 90.6342 19.4064C90.9121 19.1515 91.1336 18.8414 91.2847 18.4959C91.4357 18.1504 91.513 17.7772 91.5114 17.4002C91.5114 15.8658 90.4554 14.6925 88.56 14.6925H84.2277V20.1079H88.56Z" fill="#383A35"/>
<path d="M106.07 11.3801C106.885 11.3401 107.7 11.4645 108.466 11.746C109.232 12.0275 109.934 12.4603 110.53 13.0187C111.125 13.5771 111.602 14.2495 111.932 14.9961C112.262 15.7426 112.439 16.548 112.451 17.3642C112.451 20.8571 109.743 23.4114 106.07 23.4114H101.71V27.3556C101.718 27.413 101.712 27.4714 101.693 27.5263C101.674 27.5811 101.643 27.6309 101.602 27.6718C101.561 27.7128 101.512 27.7438 101.457 27.7625C101.402 27.7813 101.344 27.7872 101.286 27.7798H98.6416C98.5842 27.7872 98.5258 27.7813 98.471 27.7625C98.4162 27.7438 98.3663 27.7128 98.3254 27.6718C98.2844 27.6309 98.2534 27.5811 98.2347 27.5263C98.216 27.4714 98.2101 27.413 98.2174 27.3556V11.8043C98.2101 11.7469 98.216 11.6885 98.2347 11.6337C98.2534 11.5789 98.2844 11.529 98.3254 11.4881C98.3663 11.4471 98.4162 11.4161 98.471 11.3974C98.5258 11.3787 98.5842 11.3728 98.6416 11.3801H106.07ZM106.07 20.108C106.443 20.1441 106.819 20.1003 107.174 19.9795C107.528 19.8587 107.853 19.6637 108.126 19.4074C108.4 19.1512 108.615 18.8396 108.759 18.4935C108.902 18.1474 108.97 17.7747 108.958 17.4003C108.975 17.0246 108.91 16.6498 108.768 16.3016C108.626 15.9533 108.41 15.6399 108.136 15.3827C107.862 15.1255 107.535 14.9307 107.178 14.8116C106.822 14.6925 106.444 14.6519 106.07 14.6926H101.71V20.108H106.07Z" fill="#383A35"/>
<path d="M123.219 11.1364C124.878 11.1755 126.489 11.703 127.85 12.6529C129.211 13.6028 130.262 14.933 130.871 16.477C131.48 18.021 131.62 19.7103 131.273 21.3336C130.927 22.9568 130.11 24.4419 128.924 25.6031C127.738 26.7642 126.236 27.5499 124.606 27.8618C122.976 28.1737 121.29 27.9979 119.759 27.3565C118.228 26.7151 116.92 25.6366 115.999 24.2558C115.078 22.875 114.585 21.2533 114.581 19.5935C114.581 18.4676 114.805 17.3529 115.242 16.3149C115.678 15.2769 116.317 14.3364 117.122 13.5487C117.926 12.761 118.88 12.1419 119.927 11.7276C120.974 11.3134 122.093 11.1124 123.219 11.1364ZM118.101 19.5935C118.115 20.5981 118.426 21.5762 118.994 22.4048C119.562 23.2335 120.363 23.8759 121.294 24.2513C122.226 24.6268 123.248 24.7186 124.232 24.5152C125.216 24.3118 126.118 23.8223 126.825 23.1081C127.532 22.394 128.012 21.4869 128.205 20.5009C128.398 19.5149 128.295 18.4939 127.91 17.5659C127.525 16.638 126.874 15.8446 126.039 15.2852C125.205 14.7258 124.223 14.4255 123.219 14.4218C122.537 14.3998 121.859 14.5192 121.226 14.7724C120.593 15.0256 120.019 15.4071 119.541 15.893C119.063 16.3788 118.69 16.9585 118.447 17.5954C118.204 18.2322 118.095 18.9126 118.128 19.5935H118.101Z" fill="#383A35"/>
<path d="M148.012 13.6727C148.059 13.6972 148.1 13.7324 148.132 13.7754C148.163 13.8185 148.184 13.8683 148.193 13.9209C148.202 13.9734 148.198 14.0273 148.182 14.0782C148.167 14.1291 148.139 14.1757 148.102 14.2142L146.595 16.0825C146.558 16.1312 146.51 16.1706 146.456 16.1977C146.401 16.2249 146.34 16.239 146.279 16.239C146.218 16.239 146.158 16.2249 146.103 16.1977C146.048 16.1706 146 16.1312 145.963 16.0825C144.485 14.9422 142.658 14.3462 140.792 14.3947C138.743 14.3947 137.633 14.9633 137.633 15.902C137.633 16.8407 138.535 17.3461 141.243 17.6169C145.458 18.005 148.463 19.422 148.463 22.8518C148.463 26.1281 145.395 28.0235 141.243 28.0235C138.506 28.1501 135.821 27.2486 133.716 25.4963C133.508 25.3429 133.508 25.1353 133.716 24.8916L135.133 22.9962C135.159 22.9419 135.198 22.8949 135.246 22.8592C135.295 22.8235 135.351 22.8002 135.411 22.7913C135.471 22.7824 135.532 22.7882 135.588 22.8082C135.645 22.8282 135.696 22.8617 135.737 22.9059C137.308 24.1987 139.301 24.8643 141.333 24.7743C143.86 24.7743 145.007 24.0251 145.007 22.9059C145.007 21.7868 143.86 21.2181 140.828 20.9474C136.793 20.6134 134.113 19.413 134.113 16.0103C134.113 13.0318 136.974 11.1365 140.918 11.1365C143.508 11.1199 146.02 12.0181 148.012 13.6727Z" fill="#383A35"/>
<path d="M154.655 11.38C154.712 11.3727 154.771 11.3786 154.826 11.3973C154.88 11.416 154.93 11.447 154.971 11.488C155.012 11.5289 155.043 11.5788 155.062 11.6336C155.081 11.6884 155.087 11.7468 155.079 11.8042V17.6077H162.543V11.8042C162.536 11.7468 162.542 11.6884 162.561 11.6336C162.579 11.5788 162.61 11.5289 162.651 11.488C162.692 11.447 162.742 11.416 162.797 11.3973C162.852 11.3786 162.91 11.3727 162.968 11.38H165.639C165.697 11.3727 165.755 11.3786 165.81 11.3973C165.865 11.416 165.915 11.447 165.956 11.488C165.996 11.5289 166.028 11.5788 166.046 11.6336C166.065 11.6884 166.071 11.7468 166.063 11.8042V27.3645C166.071 27.422 166.065 27.4803 166.046 27.5352C166.028 27.59 165.996 27.6398 165.956 27.6808C165.915 27.7217 165.865 27.7528 165.81 27.7715C165.755 27.7902 165.697 27.7961 165.639 27.7887H162.932C162.874 27.7961 162.816 27.7902 162.761 27.7715C162.706 27.7528 162.656 27.7217 162.615 27.6808C162.574 27.6398 162.543 27.59 162.525 27.5352C162.506 27.4803 162.5 27.422 162.507 27.3645V20.8931H155.043V27.3284C155.05 27.3859 155.045 27.4442 155.026 27.4991C155.007 27.5539 154.976 27.6037 154.935 27.6447C154.894 27.6856 154.844 27.7166 154.79 27.7354C154.735 27.7541 154.676 27.76 154.619 27.7526H151.974C151.917 27.76 151.859 27.7541 151.804 27.7354C151.749 27.7166 151.699 27.6856 151.658 27.6447C151.617 27.6037 151.586 27.5539 151.567 27.4991C151.549 27.4442 151.543 27.3859 151.55 27.3284V11.8042C151.543 11.7468 151.549 11.6884 151.567 11.6336C151.586 11.5788 151.617 11.5289 151.658 11.488C151.699 11.447 151.749 11.416 151.804 11.3973C151.859 11.3786 151.917 11.3727 151.974 11.38H154.655Z" fill="#383A35"/>
<path d="M182.58 11.38C182.638 11.3727 182.696 11.3786 182.751 11.3973C182.806 11.416 182.856 11.447 182.897 11.488C182.938 11.5289 182.969 11.5788 182.987 11.6336C183.006 11.6884 183.012 11.7468 183.005 11.8042V14.2683C183.012 14.3257 183.006 14.3841 182.987 14.4389C182.969 14.4937 182.938 14.5435 182.897 14.5845C182.856 14.6255 182.806 14.6565 182.751 14.6752C182.696 14.6939 182.638 14.6998 182.58 14.6925H177.373V27.3284C177.38 27.3859 177.374 27.4442 177.355 27.4991C177.337 27.5539 177.306 27.6037 177.265 27.6447C177.224 27.6856 177.174 27.7166 177.119 27.7354C177.064 27.7541 177.006 27.76 176.948 27.7526H174.304C174.246 27.76 174.188 27.7541 174.133 27.7354C174.078 27.7166 174.029 27.6856 173.988 27.6447C173.947 27.6037 173.916 27.5539 173.897 27.4991C173.878 27.4442 173.872 27.3859 173.88 27.3284V14.6925H168.645C168.587 14.6998 168.529 14.6939 168.474 14.6752C168.419 14.6565 168.37 14.6255 168.329 14.5845C168.288 14.5435 168.257 14.4937 168.238 14.4389C168.219 14.3841 168.213 14.3257 168.221 14.2683V11.8042C168.213 11.7468 168.219 11.6884 168.238 11.6336C168.257 11.5788 168.288 11.5289 168.329 11.488C168.37 11.447 168.419 11.416 168.474 11.3973C168.529 11.3786 168.587 11.3727 168.645 11.38H182.58Z" fill="#383A35"/>
<path d="M195.009 24.5035H186.823L185.676 27.3917C185.642 27.5002 185.574 27.5946 185.481 27.6599C185.388 27.7252 185.275 27.7578 185.162 27.7527H182.183C181.885 27.7527 181.795 27.5993 181.885 27.3285L188.989 11.5877C189.018 11.5103 189.072 11.4446 189.142 11.4006C189.212 11.3566 189.294 11.3367 189.377 11.344H192.807C192.889 11.3367 192.972 11.3566 193.042 11.4006C193.112 11.4446 193.165 11.5103 193.195 11.5877L199.937 27.3014C199.96 27.3551 199.969 27.4138 199.963 27.4719C199.957 27.53 199.937 27.5857 199.903 27.6337C199.87 27.6816 199.825 27.7202 199.772 27.7457C199.719 27.7713 199.661 27.783 199.603 27.7798H196.742C196.605 27.7845 196.471 27.746 196.357 27.6698C196.244 27.5937 196.157 27.4837 196.11 27.3556L195.009 24.5035ZM188.086 21.3445H193.799L191.155 14.6023H190.821L188.086 21.3445Z" fill="#383A35"/>
</svg>
