<svg width="200" height="54" viewBox="0 0 200 54" fill="none" xmlns="http://www.w3.org/2000/svg">
<rect width="200" height="54" fill="#949494"/>
<g clip-path="url(#clip0_0_1)">
<rect width="1440" height="8361" transform="translate(-180 -5191)" fill="white"/>
<g filter="url(#filter0_df_0_1)">
<rect x="-105" y="-63" width="410" height="180" fill="white"/>
</g>
<g clip-path="url(#clip1_0_1)">
<path d="M35.1518 30.711C35.1504 30.7106 17.4399 26.7028 17.4399 26.7028C12.161 25.5082 8.84956 20.2602 10.0438 14.981C11.2388 9.70177 16.4868 6.39099 21.7656 7.58525C27.0449 8.77995 30.356 14.0279 29.1616 19.3067C28.5632 21.9498 26.9487 24.0975 24.823 25.4355C24.8227 25.4355 24.8176 25.4399 24.8156 25.4409C24.753 25.4858 24.7126 25.5588 24.7126 25.641C24.7126 25.7561 24.7921 25.8529 24.8995 25.8787C24.8998 25.8791 32.7782 27.6606 32.7796 27.6606C32.967 27.7032 33.1616 27.6308 33.2769 27.4786C33.2775 27.4773 33.2772 27.4783 33.2772 27.4783C35.4476 24.6063 36.7514 21.0227 36.7514 17.1467C36.7514 8.01873 29.6199 0.559082 20.6247 0.0292549C20.5445 0.0248184 20.057 0.00577545 19.8923 0.00342941C15.9096 -0.0590935 11.8716 1.0829 8.36004 3.54212C-0.507822 9.75134 -2.66238 21.9732 3.54619 30.8407L19.3033 53.3445C19.3706 53.4362 19.4789 53.4956 19.6005 53.4956C19.7231 53.4956 19.8318 53.4351 19.8988 53.3428C19.8988 53.3428 35.3719 31.2765 35.3733 31.2745C35.4127 31.216 35.4362 31.1451 35.4362 31.069C35.4362 30.8944 35.3149 30.7483 35.1518 30.711Z" fill="#FABC26"/>
<path d="M50.3118 10.5371C50.5014 10.5371 50.627 10.5999 50.6899 10.7259L55.9439 19.692H56.1953L60.663 10.8513C60.7571 10.6309 60.9463 10.5371 61.198 10.5371H64.407C64.6903 10.5371 64.8471 10.8204 64.7211 11.0402L55.4715 27.4005C55.3774 27.5891 55.1889 27.6838 54.9368 27.6838H51.7908C51.4446 27.6838 51.4134 27.4634 51.5394 27.2117L54.0244 22.9641L46.5998 10.9461C46.4735 10.7259 46.5683 10.5371 46.7883 10.5371H50.3118Z" fill="#2C2E2C"/>
<path d="M70.2456 10.5371C70.5289 10.5371 70.6862 10.694 70.6862 10.9773V17.7059L77.7657 10.7884C77.9542 10.6309 78.2372 10.5371 78.5833 10.5371H82.4216C82.7048 10.5371 82.7996 10.7884 82.5788 11.0089L75.0592 18.0564L83.051 27.2117C83.2711 27.4315 83.1458 27.6838 82.8625 27.6838H79.087C78.7409 27.6838 78.4895 27.5891 78.3 27.3686L72.3129 20.3064L70.6862 21.8194V27.243C70.6862 27.5263 70.5289 27.6838 70.2456 27.6838H67.4773C67.194 27.6838 67.0371 27.5263 67.0371 27.243V10.9773C67.0371 10.694 67.194 10.5371 67.4773 10.5371H70.2456Z" fill="#2C2E2C"/>
<path d="M93.4834 19.6606C95.4026 19.6606 96.5034 18.4653 96.5034 16.7979C96.5034 15.1616 95.4026 13.9979 93.4834 13.9979H88.9208V19.6606H93.4834ZM93.4834 10.5367C97.2895 10.5367 100.152 13.2737 100.152 16.7979C100.152 20.4473 97.2895 23.1215 93.4834 23.1215H88.9208V27.2428C88.9208 27.5258 88.7634 27.6833 88.4808 27.6833H85.7116C85.4286 27.6833 85.271 27.5258 85.271 27.2428V10.9772C85.271 10.6939 85.4286 10.5367 85.7116 10.5367H93.4834Z" fill="#2C2E2C"/>
<path d="M117.35 10.5371C117.632 10.5371 117.79 10.694 117.79 10.9773V27.243C117.79 27.5263 117.632 27.6838 117.35 27.6838H114.58C114.298 27.6838 114.14 27.5263 114.14 27.243V13.9661H106.526V27.243C106.526 27.5263 106.369 27.6838 106.086 27.6838H103.317C103.034 27.6838 102.876 27.5263 102.876 27.243V10.9773C102.876 10.694 103.034 10.5371 103.317 10.5371H117.35Z" fill="#2C2E2C"/>
<path d="M124.72 19.1256C124.72 22.2404 126.922 24.505 130.068 24.505C133.183 24.505 135.386 22.2404 135.386 19.1256C135.386 15.9479 133.183 13.7143 130.068 13.7143C126.922 13.7143 124.72 15.9479 124.72 19.1256ZM130.068 10.2845C135.008 10.2845 139.067 14.0916 139.067 19.1256C139.067 24.1908 135.008 27.9351 130.068 27.9351C125.097 27.9351 121.039 24.1908 121.039 19.1256C121.039 14.0916 125.097 10.2845 130.068 10.2845Z" fill="#2C2E2C"/>
<path d="M151.283 24.2545V10.977C151.283 10.6944 151.439 10.5371 151.723 10.5371H154.429C154.712 10.5371 154.87 10.6944 154.87 10.977V24.2545H160.25V10.977C160.25 10.6944 160.406 10.5371 160.69 10.5371H163.396C163.679 10.5371 163.836 10.6944 163.836 10.977V27.243C163.836 27.5263 163.679 27.6838 163.396 27.6838H142.757C142.537 27.6838 142.316 27.5263 142.316 27.243V10.977C142.316 10.6944 142.472 10.5371 142.757 10.5371H145.462C145.745 10.5371 145.903 10.6944 145.903 10.977V24.2545H151.283Z" fill="#2C2E2C"/>
<path d="M181.319 10.5371C181.601 10.5371 181.759 10.694 181.759 10.9773V13.5571C181.759 13.8404 181.601 13.9974 181.319 13.9974H175.844V27.243C175.844 27.5263 175.686 27.6838 175.403 27.6838H172.635C172.352 27.6838 172.195 27.5263 172.195 27.243V13.9974H166.72C166.437 13.9974 166.279 13.8404 166.279 13.5571V10.9773C166.279 10.694 166.437 10.5371 166.72 10.5371H181.319Z" fill="#2C2E2C"/>
<path d="M187.544 20.9823H193.522L190.754 13.9351H190.408L187.544 20.9823ZM194.781 24.2856H186.223L185.028 27.3056C184.934 27.5577 184.745 27.6833 184.493 27.6833H181.378C181.064 27.6833 180.97 27.5258 181.064 27.2428L188.489 10.7887C188.551 10.6311 188.677 10.5367 188.898 10.5367H192.484C192.704 10.5367 192.83 10.6311 192.893 10.7887L199.972 27.1796C200.067 27.432 199.91 27.6833 199.626 27.6833H196.637C196.324 27.6833 196.102 27.5258 195.977 27.2428L194.781 24.2856Z" fill="#2C2E2C"/>
<path d="M49.022 42.3845V35.0417H53.8528V35.8876H49.9924V42.3845H49.022Z" fill="#617171"/>
<path d="M56.2323 38.7029C56.2323 40.5388 57.2333 41.7246 58.792 41.7246C60.3301 41.7246 61.3312 40.5279 61.3312 38.7029C61.3312 36.888 60.3301 35.7123 58.7713 35.7123C57.0373 35.7123 56.2323 37.1352 56.2323 38.7029ZM62.3019 38.6512C62.3019 40.8071 61.1147 42.5598 58.7819 42.5598C56.4286 42.5598 55.2622 40.7654 55.2622 38.6305C55.2622 36.3417 56.6348 34.8666 58.7713 34.8666C61.0526 34.8666 62.3019 36.4648 62.3019 38.6512Z" fill="#617171"/>
<path d="M69.8982 42.3847H68.9281V35.8877H66.2134L66.069 40.0229C66.0174 41.4981 65.4803 42.5396 64.3659 42.5396C64.159 42.5396 63.8496 42.4672 63.6638 42.3949V41.5698C63.7983 41.6527 64.0769 41.6734 64.19 41.6734C64.7164 41.6734 65.0989 41.3843 65.1503 39.5175L65.2844 35.0419H69.8982V42.3847Z" fill="#617171"/>
<path d="M73.1578 38.7029C73.1578 40.5388 74.1588 41.7246 75.7176 41.7246C77.2554 41.7246 78.2567 40.5279 78.2567 38.7029C78.2567 36.888 77.2554 35.7123 75.6969 35.7123C73.9628 35.7123 73.1578 37.1352 73.1578 38.7029ZM79.2268 38.6512C79.2268 40.8071 78.0403 42.5598 75.7075 42.5598C73.3538 42.5598 72.187 40.7654 72.187 38.6305C72.187 36.3417 73.5603 34.8666 75.6969 34.8666C77.9781 34.8666 79.2268 36.4648 79.2268 38.6512Z" fill="#617171"/>
<path d="M82.4604 41.5697H84.4012C85.3816 41.5697 86.3415 41.5082 86.3415 40.219C86.3415 38.9402 85.2165 38.9503 84.2362 38.9503H82.4604V41.5697ZM82.4604 38.1871H84.2049C85.0307 38.1871 86.0219 38.1253 86.0219 37.0221C86.0219 35.9181 85.1646 35.8669 84.298 35.8669H82.4604V38.1871ZM84.6489 35.0417C85.867 35.0417 86.9914 35.5268 86.9914 36.8774C86.9914 37.5991 86.5687 38.2183 85.908 38.4551C86.8164 38.662 87.3219 39.342 87.3219 40.3118C87.3219 42.003 85.939 42.3845 84.5354 42.3845H81.511V35.0417H84.6489Z" fill="#617171"/>
<path d="M95.4616 42.3845H94.4912V38.9503H90.6103V42.3845H89.6399V35.0417H90.6103V38.1043H94.4912V35.0417H95.4616V42.3845Z" fill="#617171"/>
<path d="M100.881 35.9697L99.6113 39.3631H102.13L100.881 35.9697ZM104.318 42.3845H103.235L102.419 40.1365H99.3331L98.4974 42.3845H97.4644L100.355 35.0417H101.449L104.318 42.3845Z" fill="#617171"/>
<path d="M116.283 42.3845H115.312V35.8876H111.431V42.3845H110.461V35.0417H116.283V42.3845Z" fill="#617171"/>
<path d="M119.551 38.7029C119.551 40.5388 120.552 41.7246 122.11 41.7246C123.649 41.7246 124.649 40.5279 124.649 38.7029C124.649 36.888 123.649 35.7123 122.09 35.7123C120.356 35.7123 119.551 37.1352 119.551 38.7029ZM125.62 38.6512C125.62 40.8071 124.433 42.5598 122.101 42.5598C119.747 42.5598 118.581 40.7654 118.581 38.6305C118.581 36.3417 119.953 34.8666 122.09 34.8666C124.371 34.8666 125.62 36.4648 125.62 38.6512Z" fill="#617171"/>
<path d="M127.904 35.0417H128.875V41.539H132.136V35.0417H133.106V41.539H136.368V35.0417H137.338V42.3845H127.904V35.0417Z" fill="#617171"/>
<path d="M145.308 35.8876H142.841V42.3845H141.871V35.8876H139.404V35.0417H145.308V35.8876Z" fill="#617171"/>
<path d="M149.065 35.9697L147.797 39.3631H150.315L149.065 35.9697ZM152.503 42.3845H151.419L150.603 40.1365H147.517L146.682 42.3845H145.649L148.539 35.0417H149.633L152.503 42.3845Z" fill="#617171"/>
<path d="M161.515 37.9915L164.735 42.3845H163.497L160.833 38.6511L159.616 39.8067V42.3845H158.645V35.0417H159.616V38.6823L163.342 35.0417H164.611L161.515 37.9915Z" fill="#617171"/>
<path d="M167.754 38.5584H169.622C170.562 38.5584 171.284 38.3006 171.284 37.2181C171.284 36.0421 170.448 35.877 169.488 35.877H167.754V38.5584ZM169.808 35.0417C171.212 35.0417 172.254 35.6294 172.254 37.1559C172.254 38.8165 171.181 39.3733 169.746 39.3733H167.754V42.3845H166.783V35.0417H169.808Z" fill="#617171"/>
<path d="M176.548 35.9697L175.278 39.3631H177.797L176.548 35.9697ZM179.985 42.3845H178.902L178.086 40.1365H175L174.164 42.3845H173.131L176.021 35.0417H177.116L179.985 42.3845Z" fill="#617171"/>
<path d="M183.934 34.4127H183.004V33.3712H183.934V34.4127ZM182.974 42.3845H182.004V35.0417H182.974V42.3845ZM181.983 34.4127H181.054V33.3712H181.983V34.4127Z" fill="#617171"/>
<path d="M191.48 42.3845H190.51V38.9503H186.63V42.3845H185.659V35.0417H186.63V38.1043H190.51V35.0417H191.48V42.3845Z" fill="#617171"/>
<path d="M194.151 35.0417H195.122V41.2605H195.142L198.744 35.0417H199.972V42.3845H199.003V36.145H198.982L195.369 42.3845H194.151V35.0417Z" fill="#617171"/>
</g>
</g>
<defs>
<filter id="filter0_df_0_1" x="-116" y="-70" width="432" height="202" filterUnits="userSpaceOnUse" color-interpolation-filters="sRGB">
<feFlood flood-opacity="0" result="BackgroundImageFix"/>
<feColorMatrix in="SourceAlpha" type="matrix" values="0 0 0 0 0 0 0 0 0 0 0 0 0 0 0 0 0 0 127 0" result="hardAlpha"/>
<feOffset dy="4"/>
<feGaussianBlur stdDeviation="5.5"/>
<feComposite in2="hardAlpha" operator="out"/>
<feColorMatrix type="matrix" values="0 0 0 0 0 0 0 0 0 0 0 0 0 0 0 0 0 0 0.06 0"/>
<feBlend mode="normal" in2="BackgroundImageFix" result="effect1_dropShadow_0_1"/>
<feBlend mode="normal" in="SourceGraphic" in2="effect1_dropShadow_0_1" result="shape"/>
<feGaussianBlur stdDeviation="0.5" result="effect2_foregroundBlur_0_1"/>
</filter>
<clipPath id="clip0_0_1">
<rect width="1440" height="8361" fill="white" transform="translate(-180 -5191)"/>
</clipPath>
<clipPath id="clip1_0_1">
<rect width="200" height="53.4957" fill="white"/>
</clipPath>
</defs>
</svg>
