<svg width="200" height="72" viewBox="0 0 200 72" fill="none" xmlns="http://www.w3.org/2000/svg">
<g clip-path="url(#clip0_1715_1009)">
<path fill-rule="evenodd" clip-rule="evenodd" d="M87.55 12.1169C87.55 12.1169 87.55 12.1169 91.7567 12.1169C93.2895 12.1169 94.0617 12.8743 94.0617 14.584C94.0617 14.584 94.0617 14.584 94.0617 20.6425C94.0617 20.6425 94.0617 20.6425 102.302 20.6425C102.302 20.6425 102.302 20.6425 102.302 14.584C102.302 12.8743 103.063 12.1169 104.792 12.1169C104.792 12.1169 104.792 12.1169 108.814 12.1169C108.814 12.1169 108.814 12.1169 108.814 16.0986C108.814 16.0986 108.814 16.0986 107.097 16.0986L106.901 16.2937C106.901 16.2937 106.901 16.2936 106.901 33.3447C106.901 33.3447 106.901 33.3447 102.302 33.3447C102.302 33.3447 102.302 33.3447 102.302 24.8192C102.302 24.8192 102.302 24.8192 94.0617 24.8192C94.0617 24.8192 94.0617 24.8192 94.0617 33.3447C94.0617 33.3447 94.0617 33.3447 89.4632 33.3447C89.4632 33.3447 89.4632 33.3447 89.4632 16.2937C89.4632 16.2937 89.4632 16.0986 89.2673 16.0986C89.2673 16.0986 89.2673 16.0986 87.55 16.0986C87.55 16.0986 87.55 16.0986 87.55 12.1169Z" fill="#ED1C24"/>
<path fill-rule="evenodd" clip-rule="evenodd" d="M120.88 11.7383L120.984 11.7498V16.1215L120.88 16.0986C117.434 16.0986 114.749 18.9443 114.749 22.5472C114.749 26.3338 117.434 29.3631 120.88 29.3631L120.984 29.3401V33.7119L120.88 33.7234C114.749 33.7234 109.77 28.8008 109.77 22.5472C109.77 16.4772 114.749 11.7383 120.88 11.7383Z" fill="#ED1C24"/>
<path fill-rule="evenodd" clip-rule="evenodd" d="M120.984 11.7498L123.116 11.9563C128.176 12.9431 131.991 17.2346 131.991 22.5472C131.991 28.0091 128.176 32.4726 123.116 33.4939L120.984 33.7119V29.3401L123.324 28.8352C125.583 27.8025 127.208 25.3814 127.208 22.5472C127.208 19.8393 125.583 17.5673 123.324 16.6035L120.984 16.1215V11.7498Z" fill="#ED1C24"/>
<path fill-rule="evenodd" clip-rule="evenodd" d="M132.947 12.1169C132.947 12.1169 132.947 12.1169 139.367 12.1169H142.432V16.0986H142.144C141.764 16.0986 140.992 16.0986 139.459 16.0986C139.459 16.0986 139.459 16.0986 139.459 20.4589C139.459 20.4589 139.459 20.4589 140.761 20.4589H142.432V24.2455H141.453C140.969 24.2455 140.323 24.2455 139.459 24.2455C139.459 24.2455 139.459 24.2455 139.459 28.9844C139.459 29.1795 139.459 29.1795 139.655 29.1795C139.655 29.1795 139.655 29.1795 141.026 29.1795H142.432V33.3447H142.029C141.338 33.3447 139.943 33.3447 137.165 33.3447C135.633 33.3447 134.872 32.5874 134.872 30.8777V16.0986C134.872 16.0986 134.872 16.0986 132.947 16.0986C132.947 16.0986 132.947 16.0986 132.947 12.1169Z" fill="#ED1C24"/>
<path fill-rule="evenodd" clip-rule="evenodd" d="M142.432 12.1169H142.525C146.743 12.1169 149.232 14.3889 149.232 17.8083C149.232 19.8852 148.276 21.2162 147.319 22.1686C149.048 22.9259 150.189 24.8192 150.189 26.8961C150.189 30.8777 147.123 33.3447 142.72 33.3447C142.72 33.3447 142.72 33.3447 142.64 33.3447H142.432V29.1795H142.905C144.438 29.1795 145.406 28.2271 145.406 26.7125C145.406 25.1978 144.438 24.2455 142.905 24.2455C142.905 24.2455 142.905 24.2455 142.478 24.2455H142.432V20.4589H142.525C143.873 20.4589 144.634 19.5065 144.634 18.1869C144.634 16.8559 143.873 16.0986 142.525 16.0986C142.525 16.0986 142.525 16.0986 142.478 16.0986H142.432V12.1169Z" fill="#ED1C24"/>
<path fill-rule="evenodd" clip-rule="evenodd" d="M159.005 12.1169C159.005 12.1169 159.005 12.1169 160.942 12.1169H161.299V18.1869C161.115 18.5656 160.919 19.1278 160.919 19.7016C160.919 19.7016 160.919 19.7016 159.386 24.0619C159.386 24.0619 159.386 24.0619 161.011 24.0619H161.299V28.032H160.262C159.674 28.032 159.005 28.032 158.245 28.032C158.245 28.032 158.245 28.032 156.896 31.4514C156.516 32.771 155.755 33.3447 154.223 33.3447C154.223 33.3447 154.223 33.3447 151.341 33.3447C151.341 33.3447 151.341 33.3447 151.341 29.1795C151.341 29.1795 151.341 29.1795 152.298 29.1795C152.69 29.1795 152.69 29.1795 152.874 28.9844C152.874 28.9844 152.874 28.9844 159.005 12.1169Z" fill="#ED1C24"/>
<path fill-rule="evenodd" clip-rule="evenodd" d="M161.299 12.1169H163.604C163.604 12.1169 163.604 12.1169 169.735 28.9844C169.92 29.1795 169.92 29.1795 170.3 29.1795C170.3 29.1795 170.3 29.1795 171.072 29.1795C171.072 29.1795 171.072 29.1795 171.072 33.3447C171.072 33.3447 171.072 33.3447 168.387 33.3447C166.854 33.3447 166.093 32.771 165.701 31.2564C165.701 31.2564 165.701 31.2564 164.364 28.032C164.364 28.032 164.364 28.032 161.783 28.032H161.299V24.0619H163.212C163.212 24.0619 163.212 24.0619 161.691 19.7016C161.691 19.1278 161.495 18.5656 161.299 18.1869V12.1169Z" fill="#ED1C24"/>
<path fill-rule="evenodd" clip-rule="evenodd" d="M87.55 39.4033C87.55 39.4033 87.55 39.4033 104.215 39.4033C105.748 39.4033 106.705 40.1606 106.705 41.8703C106.705 41.8703 106.705 41.8703 106.705 56.2708C106.705 56.4544 106.705 56.4544 106.901 56.4544C106.901 56.4544 106.901 56.4544 108.433 56.4544C108.433 56.4544 108.433 56.4544 108.433 60.6311C108.433 60.6311 108.433 60.6311 104.411 60.6311C102.682 60.6311 101.922 59.8738 101.922 58.1641C101.922 58.1641 101.922 58.1641 101.922 43.58C101.922 43.58 101.922 43.385 101.726 43.385C101.726 43.385 101.726 43.385 94.0617 43.385C94.0617 43.385 94.0617 43.385 94.0617 60.6311C94.0617 60.6311 94.0617 60.6311 89.4632 60.6311C89.4632 60.6311 89.4632 60.6311 89.4632 43.385C89.4632 43.385 89.4632 43.385 87.55 43.385C87.55 43.385 87.55 43.385 87.55 39.4033Z" fill="#ED1C24"/>
<path fill-rule="evenodd" clip-rule="evenodd" d="M120.5 39.0247L120.592 39.0361V43.4079L120.5 43.385C117.043 43.385 114.369 46.2306 114.369 49.8336C114.369 53.6202 117.043 56.6494 120.5 56.6494L120.592 56.6265V60.9983L120.5 61.0097C114.369 61.0097 109.574 56.0757 109.574 49.8336C109.574 43.7636 114.369 39.0247 120.5 39.0247Z" fill="#ED1C24"/>
<path fill-rule="evenodd" clip-rule="evenodd" d="M120.592 39.0361L122.794 39.2427C127.945 40.2295 131.61 44.5209 131.61 49.8336C131.61 55.2955 127.945 59.759 122.794 60.7803L120.592 60.9983V56.6265L123.024 56.1216C125.318 55.0889 126.827 52.6678 126.827 49.8336C126.827 47.1256 125.318 44.8537 123.024 43.8898L120.592 43.4079V39.0361Z" fill="#ED1C24"/>
<path fill-rule="evenodd" clip-rule="evenodd" d="M132.567 39.4033C132.567 39.4033 132.567 39.4033 136.785 39.4033C138.318 39.4033 139.079 40.1606 139.079 41.8703C139.079 41.8703 139.079 41.8703 139.079 56.2708C139.079 56.4544 139.079 56.4544 139.274 56.4544C139.274 56.4544 139.274 56.4544 144.83 56.4544C144.83 56.4544 144.83 56.4544 144.83 39.4033C144.83 39.4033 144.83 39.4033 149.428 39.4033C149.428 39.4033 149.428 39.4033 149.428 56.4544C149.428 56.4544 149.428 56.4544 154.983 56.4544C155.179 56.4544 155.179 56.4544 155.179 56.2708C155.179 56.2708 155.179 56.2708 155.179 41.8703C155.179 40.1606 155.94 39.4033 157.473 39.4033C157.473 39.4033 157.473 39.4033 161.691 39.4033C161.691 39.4033 161.691 39.4033 161.691 43.385C161.691 43.385 161.691 43.385 159.962 43.385C159.766 43.385 159.766 43.58 159.766 43.58C159.766 43.58 159.766 43.58 159.766 58.1641C159.766 59.8738 159.005 60.6311 157.473 60.6311C157.473 60.6311 157.473 60.6311 136.969 60.6311C135.252 60.6311 134.48 59.8738 134.48 58.1641C134.48 58.1641 134.48 58.1641 134.48 43.58C134.48 43.58 134.48 43.385 134.296 43.385C134.296 43.385 134.296 43.385 132.567 43.385C132.567 43.385 132.567 43.385 132.567 39.4033Z" fill="#ED1C24"/>
<path fill-rule="evenodd" clip-rule="evenodd" d="M165.321 39.4033C165.321 39.4033 165.321 39.4033 179.693 39.4033C181.421 39.4033 181.998 40.1606 181.998 41.6753C181.998 41.6753 181.998 41.6753 181.998 45.2782H177.78C177.78 45.2782 177.78 45.2782 177.78 43.58C177.78 43.385 177.78 43.385 177.584 43.385C177.584 43.385 177.584 43.385 174.91 43.385C174.91 43.385 174.91 43.385 174.91 60.6311C174.91 60.6311 174.91 60.6311 170.3 60.6311C170.3 60.6311 170.3 60.6311 170.3 43.385C170.3 43.385 170.3 43.385 167.626 43.385C167.43 43.385 167.43 43.385 167.43 43.58C167.43 43.58 167.43 43.58 167.43 45.2782C167.43 45.2782 167.43 45.2782 163.212 45.2782C163.212 45.2782 163.212 45.2782 163.212 41.6753C163.212 40.1606 163.788 39.4033 165.321 39.4033Z" fill="#ED1C24"/>
<path fill-rule="evenodd" clip-rule="evenodd" d="M187.933 39.4033C187.933 39.4033 187.933 39.4033 189.869 39.4033H190.227V45.4733C190.031 45.852 189.846 46.4142 189.846 46.9879C189.846 46.9879 189.846 46.9879 188.314 51.3482C188.314 51.3482 188.314 51.3482 189.927 51.3482H190.227V55.3184H189.189C188.602 55.3184 187.933 55.3184 187.161 55.3184C187.161 55.3184 187.161 55.3184 185.824 58.5427C185.444 60.0574 184.672 60.6311 183.139 60.6311C183.139 60.6311 183.139 60.6311 180.269 60.6311C180.269 60.6311 180.269 60.6311 180.269 56.4544C180.269 56.4544 180.269 56.4544 181.226 56.4544C181.617 56.4544 181.617 56.4544 181.802 56.2708C181.802 56.2708 181.802 56.2708 187.933 39.4033Z" fill="#ED1C24"/>
<path fill-rule="evenodd" clip-rule="evenodd" d="M190.227 39.4033H192.52C192.52 39.4033 192.52 39.4033 198.663 56.2708C198.848 56.4544 198.848 56.4544 199.239 56.4544H200C200 56.4544 200 56.4544 200 60.6311C200 60.6311 200 60.6311 197.315 60.6311C195.782 60.6311 195.021 60.0574 194.629 58.5427C194.629 58.5427 194.629 58.5427 193.292 55.3184C193.292 55.3184 193.292 55.3184 190.711 55.3184H190.227V51.3482H192.14C192.14 51.3482 192.14 51.3482 190.607 46.9879C190.607 46.4142 190.423 45.852 190.227 45.4733V39.4033Z" fill="#ED1C24"/>
<path fill-rule="evenodd" clip-rule="evenodd" d="M58.0228 21.1474C58.2418 21.0786 58.5299 21.2163 58.818 21.5949C58.818 21.5949 58.818 21.5949 71.8413 34.2857C72.602 35.043 72.602 36.1905 71.8413 36.7527C71.8413 36.7527 71.8413 36.7527 58.818 49.6385C58.5299 50.0172 58.2418 50.109 58.0228 49.9942C57.8038 49.8795 57.6655 49.5467 57.6655 49.0648V21.9736C57.6655 21.5031 57.8038 21.2163 58.0228 21.1474Z" fill="#ED1C24"/>
<path fill-rule="evenodd" clip-rule="evenodd" d="M35.7451 0H36.6671L37.5545 0.367184C37.5545 0.367184 37.5545 0.367184 50.9581 13.6317C51.5344 14.389 51.3385 14.9627 50.3819 14.9627C50.3819 14.9627 50.3819 14.9627 44.8268 14.9627C43.8702 14.9627 43.1096 15.72 43.1096 16.6724C43.1096 16.6724 43.1096 16.6724 43.1096 26.5175C43.1096 27.4699 42.3374 28.2272 41.1849 28.2272C41.1849 28.2272 41.1849 28.2272 31.4232 28.2272C30.4666 28.2272 29.6944 27.4699 29.6944 26.5175C29.6944 26.5175 29.6944 26.5175 29.6944 16.6724C29.6944 15.72 28.9337 14.9627 27.9656 14.9627H22.0302C21.0737 14.9627 20.8777 14.389 21.454 13.6317C21.454 13.6317 21.454 13.6317 34.8692 0.367184L35.7451 0Z" fill="#ED1C24"/>
<path fill-rule="evenodd" clip-rule="evenodd" d="M14.7463 20.8607C14.9883 20.9754 15.1382 21.3082 15.1382 21.7901V49.4436C15.1382 49.9255 14.9883 50.2124 14.7463 50.3042C14.5158 50.396 14.1816 50.3042 13.7897 50.0173C13.7897 50.0173 13.7897 50.0173 0.57049 36.7528C-0.190163 36.1906 -0.190163 35.0431 0.57049 34.2858C0.57049 34.2858 0.570491 34.2858 13.7897 21.2164C14.1816 20.8377 14.5158 20.7459 14.7463 20.8607Z" fill="#ED1C24"/>
<path fill-rule="evenodd" clip-rule="evenodd" d="M31.4232 42.6277C31.4232 42.6277 31.4232 42.6277 41.1849 42.6277C42.3374 42.6277 43.1096 43.385 43.1096 44.3374C43.1096 44.3374 43.1096 44.3374 43.1096 54.7562C43.1096 55.8922 43.8702 56.6495 44.8268 56.6495H50.0015C50.9581 56.6495 51.3384 57.2117 50.5778 57.7855C50.5778 57.7855 50.5778 57.7855 37.5545 70.8549C37.1626 71.2335 36.6901 71.4286 36.206 71.4286C35.7335 71.4286 35.2495 71.2335 34.8691 70.8549C34.8691 70.8549 34.8691 70.8549 21.8458 57.7855C21.0737 57.2117 21.454 56.6495 22.4106 56.6495C22.4106 56.6495 22.4106 56.6495 27.9656 56.6495C28.9337 56.6495 29.6944 55.8922 29.6944 54.7562C29.6944 54.7562 29.6944 54.7562 29.6944 44.3374C29.6944 43.385 30.4666 42.6277 31.4232 42.6277Z" fill="#ED1C24"/>
</g>
<defs>
<clipPath id="clip0_1715_1009">
<rect width="200" height="71.4286" fill="white"/>
</clipPath>
</defs>
</svg>
