<svg width="200" height="82" viewBox="0 0 200 82" fill="none" xmlns="http://www.w3.org/2000/svg">
<g clip-path="url(#clip0_1715_986)">
<path d="M200 0H0V81.0844H200V0Z" fill="white"/>
<path d="M112.294 31.3989L109.755 40.675C109.542 41.4927 108.801 44.8958 108.552 47.3854H108.331C108.082 44.6823 107.406 41.7646 107.122 40.4843L105.095 31.4H98.6365L96.6094 40.4843C96.325 41.7646 95.649 44.6823 95.4 47.3854H95.1792C94.9302 44.8958 94.1896 41.4937 93.9761 40.675L91.4375 31.3989H84.0115L90.6625 52.526C91.4802 55.1229 92.8323 56.4739 95.1438 56.4739C97.4198 56.4739 98.8781 55.051 99.4479 52.526L100.444 48.2218C100.871 46.4083 101.475 43.776 101.759 41.7843H101.973C102.257 43.776 102.863 46.4083 103.289 48.2218L104.284 52.526C104.889 55.051 106.311 56.4739 108.589 56.4739C110.9 56.4739 112.252 55.1218 113.07 52.526L119.721 31.3989H112.294Z" fill="#009345"/>
<path d="M132.418 30.8656C124.877 30.8656 119.079 36.45 119.079 43.6698C119.079 50.8906 124.877 56.4739 132.418 56.4739C139.958 56.4739 145.756 50.8896 145.756 43.6698C145.756 36.45 139.958 30.8656 132.418 30.8656ZM132.418 50.25C128.719 50.25 125.837 47.3687 125.837 43.6698C125.837 39.9708 128.719 37.0896 132.418 37.0896C136.117 37.0896 138.998 39.9708 138.998 43.6698C138.998 47.3698 136.117 50.25 132.418 50.25Z" fill="#009345"/>
<path d="M173.356 41.8209H159.022V46.8719H166.88C166.496 48.7282 164.172 50.5354 160.978 50.5354C156.554 50.5354 154.184 47.5479 154.184 43.6709C154.184 39.9365 157.03 37.0552 160.871 37.0552C163.538 37.0552 165.566 38.4073 166.669 40.4698L172.822 37.9448C170.652 33.6771 166.633 30.8667 160.871 30.8667C153.401 30.8667 147.532 36.4157 147.532 43.6709C147.532 50.9271 153.152 56.475 160.871 56.475C169.337 56.475 174.779 49.824 173.356 41.8209Z" fill="#009345"/>
<path d="M67.8031 16.2063C63.3281 16.2063 59.7 19.8344 59.7 24.3094C59.7 25.599 60.0031 26.8188 60.5395 27.9011L67.8031 42.624L75.0677 27.9011C75.6041 26.8188 75.9072 25.599 75.9072 24.3094C75.9062 19.8344 72.2781 16.2063 67.8031 16.2063Z" fill="#8BC53F"/>
<path d="M41.9032 51.5135L35.3042 64.8781L17.0459 27.9042C15.0636 23.8896 16.7115 19.0292 20.7251 17.0469C24.7396 15.0646 29.6001 16.7125 31.5824 20.726L41.9021 41.6271C43.4417 44.7427 43.4417 48.3979 41.9032 51.5135Z" fill="#009345"/>
<path d="M63.6417 51.5135L57.0427 64.8781L38.7854 27.9042C36.8031 23.8896 38.451 19.0292 42.4646 17.0469C46.4792 15.0646 51.3396 16.7125 53.3219 20.726L63.6417 41.6271C65.1802 44.7427 65.1802 48.3979 63.6417 51.5135Z" fill="#009345"/>
</g>
<defs>
<clipPath id="clip0_1715_986">
<rect width="200" height="81.0844" fill="white"/>
</clipPath>
</defs>
</svg>
