<svg width="200" height="52" viewBox="0 0 200 52" fill="none" xmlns="http://www.w3.org/2000/svg">
<rect width="200" height="52" fill="#949494"/>
<g clip-path="url(#clip0_0_1)">
<rect width="1440" height="8361" transform="translate(-620 -5192)" fill="white"/>
<g filter="url(#filter0_df_0_1)">
<rect x="-105" y="-64" width="410" height="180" fill="white"/>
</g>
<g clip-path="url(#clip1_0_1)">
<mask id="mask0_0_1" style="mask-type:luminance" maskUnits="userSpaceOnUse" x="0" y="0" width="200" height="52">
<path d="M200 0H0V51.8519H200V0Z" fill="white"/>
</mask>
<g mask="url(#mask0_0_1)">
<path d="M128.79 0V5.92193H193.984V43.3653H128.79V49.2873H200.001V0H128.79Z" fill="url(#paint0_linear_0_1)"/>
<path fill-rule="evenodd" clip-rule="evenodd" d="M87.6611 28.5846C87.6611 30.8228 86.4861 31.8953 83.9479 31.8953H74.9232C72.338 31.8953 71.1159 30.8228 71.163 28.5846V20.7509C71.163 18.2795 72.338 17.2537 74.9232 17.2537H83.9479C86.4861 17.2537 87.6611 18.3262 87.6611 20.7043V28.5846ZM82.2088 12.7306H76.6624C68.1077 12.4042 66.3216 16.461 66.3685 20.7509V28.6779C66.3685 35.2526 69.8938 36.3717 76.6624 36.4184H82.2088C87.7552 36.4184 92.5025 35.1594 92.5025 28.5846V20.7509C92.5025 16.4143 90.9514 12.6839 82.2088 12.7306ZM143.878 13.4301H128.789V35.7189H143.878C148.107 35.7189 150.081 35.0195 151.962 33.8072C153.842 32.4548 154.547 30.9627 154.547 27.6054V21.2172C154.547 17.5334 153.42 16.1346 151.915 14.9689C150.175 13.6167 148.484 13.4301 143.878 13.4301ZM133.584 18.0464H144.112C147.732 18.0464 150.035 18.4194 150.035 21.5436V27.3722C150.035 30.3565 148.859 30.9627 144.112 31.1026H133.584V18.0464ZM103.502 22.2896H117.979V13.4301H122.82V35.7189H117.979V26.8127H103.502V35.7189H98.7075V13.4301H103.502V22.2896ZM33.1846 13.3834H28.1552V35.7189H33.1846V13.3834ZM172.08 18.7458L167.709 26.9059H176.499L172.08 18.7458ZM169.401 13.5233H174.948L188.015 35.8122H181.388L179.084 31.5689H165.265L162.962 35.8122H156.381L169.401 13.5233ZM13.443 31.1493C12.973 31.1493 5.02938 31.1026 5.02938 31.1026V25.6936H14.7591C17.2033 25.6936 17.9553 27.3257 17.9553 28.4447C17.9553 30.0768 17.4383 31.1493 13.443 31.1493ZM5.02938 17.3004H13.067C15.2291 17.3004 16.4983 17.6733 16.4983 19.3054C16.4983 20.238 16.1222 21.5902 14.7591 21.5902H5.02938V17.3004ZM19.0364 23.3621L19.072 23.3318C20.0415 22.5079 20.7756 21.8841 20.7756 19.2121C20.7756 14.4093 17.7204 13.0104 11.7509 13.0104H0V35.7189H13.631C17.7204 35.8588 22.7967 35.8588 22.7967 29.0975C22.7967 27.4655 22.0916 24.3414 19.0364 23.3621ZM56.4073 13.3834H62.7998L50.5789 22.4762L62.7058 35.8122H56.6423L46.8656 25.2273L45.3615 26.3464V35.8122H40.5672V13.3834H45.3615V21.5436L56.4073 13.3834ZM5.59225 47.9825C5.87427 47.9825 6.15628 47.9358 6.43831 47.8426C6.72033 47.7492 6.95535 47.6094 7.14336 47.4228C7.33137 47.2364 7.5194 47.0032 7.6134 46.7234C7.75441 46.4437 7.80141 46.1173 7.80141 45.7442C7.80141 45.3712 7.75441 45.0448 7.6134 44.7651C7.47238 44.4852 7.33137 44.2521 7.14336 44.1122C6.95535 43.9257 6.72033 43.7858 6.43831 43.6926C6.15628 43.5993 5.87427 43.5527 5.59225 43.5527V47.9825ZM3.99412 43.5993C3.33607 43.6459 2.81904 43.8325 2.39601 44.2054C1.97298 44.5785 1.78496 45.0915 1.78496 45.7909C1.78496 46.4902 1.97298 47.0032 2.39601 47.3763C2.81904 47.7493 3.33607 47.9358 3.99412 47.9825V43.5993ZM5.59225 51.8527H3.99412V49.3814C3.43009 49.3347 2.86604 49.2415 2.39601 49.0549C1.92598 48.8684 1.50294 48.6353 1.17391 48.3089C0.84489 47.9825 0.562869 47.6094 0.374854 47.1897C0.186841 46.7701 0.0928337 46.3038 0.0928337 45.7909C0.0928337 45.2779 0.186841 44.8116 0.374854 44.392C0.562869 43.9723 0.797886 43.5992 1.17391 43.3195C1.50294 42.9931 1.87896 42.76 2.349 42.5735C2.81904 42.3869 3.38307 42.2937 3.99412 42.247V40.8015L5.59225 40.5217V42.247C6.10928 42.2937 6.62632 42.3869 7.09636 42.5268C7.5664 42.7133 7.98942 42.9464 8.31845 43.2263C8.69448 43.506 8.97649 43.879 9.16452 44.3453C9.39953 44.7651 9.49354 45.2779 9.49354 45.8375C9.49354 46.397 9.39953 46.91 9.16452 47.3296C8.97649 47.7493 8.69448 48.1223 8.31845 48.4488C7.94242 48.7285 7.5664 48.9616 7.09636 49.1481C6.62632 49.3347 6.10928 49.4279 5.59225 49.4279V51.8527ZM16.2637 48.0757C15.9817 48.1223 15.6057 48.169 15.0886 48.169C14.6656 48.169 14.2896 48.1223 14.0546 47.9825C13.8195 47.8426 13.6785 47.5628 13.6785 47.1897C13.6785 46.9565 13.7256 46.8167 13.8195 46.6768C13.9136 46.5369 14.0546 46.4437 14.1956 46.3504C14.3365 46.3038 14.5246 46.2572 14.7125 46.2106C14.9005 46.1641 15.0886 46.1639 15.2767 46.1639H15.8407C15.9193 46.1834 15.9898 46.1947 16.0519 46.2047C16.1383 46.2186 16.2091 46.2301 16.2637 46.2572V48.0757ZM16.3578 42.2004C15.9817 42.0605 15.5117 42.0139 14.9477 42.0139C14.7064 42.0139 14.4777 42.0262 14.2549 42.0381C14.0436 42.0495 13.8375 42.0605 13.6315 42.0605C13.5181 42.0855 13.4116 42.1072 13.3126 42.1273C13.0423 42.1821 12.8291 42.2254 12.6915 42.2937L12.8795 43.6459C12.9712 43.6276 13.0631 43.6023 13.1605 43.5755C13.3123 43.5336 13.4783 43.4878 13.6785 43.4594C14.0075 43.4127 14.3836 43.3662 14.7596 43.3662C15.0416 43.3662 15.2767 43.3662 15.4647 43.4594C15.6527 43.5527 15.8407 43.6459 15.9347 43.7858C16.0288 43.9257 16.1227 44.0655 16.1698 44.2521C16.1698 44.3453 16.1815 44.4386 16.1932 44.5318C16.2049 44.6252 16.2168 44.7184 16.2168 44.8116V45.0915C15.9817 45.0448 15.7467 44.9981 15.5586 44.9981C15.3706 44.9515 15.1827 44.9515 14.9947 44.9515C14.6188 44.9515 14.2426 44.9515 13.8665 45.0448C13.5375 45.0915 13.2085 45.2313 12.9265 45.4178C12.6444 45.6043 12.4095 45.8375 12.2684 46.1173C12.1274 46.397 12.0334 46.7234 12.0334 47.1431C12.0334 47.5628 12.1274 47.9358 12.2684 48.2155C12.4095 48.4954 12.6444 48.7285 12.8795 48.9151C13.1144 49.0549 13.3965 49.1948 13.7726 49.288C14.1016 49.3814 14.5246 49.4279 14.9477 49.4279C15.6057 49.4279 16.1698 49.4279 16.6868 49.3347C17.1443 49.2934 17.5283 49.2157 17.7733 49.166L17.8619 49.1481V44.8116C17.8619 44.392 17.8148 44.0189 17.7209 43.6459C17.6268 43.3195 17.4858 42.9931 17.2509 42.76C17.0158 42.5268 16.7338 42.3402 16.3578 42.2004ZM22.7027 44.392C22.7027 44.462 22.6909 44.5318 22.6791 44.6018C22.6674 44.6717 22.6557 44.7417 22.6557 44.8116V45.2779C22.6557 45.6976 22.7027 46.0706 22.7496 46.397C22.7967 46.7234 22.8907 47.0499 23.0317 47.283C23.1727 47.5162 23.3607 47.7027 23.5488 47.8426C23.7368 47.9825 24.0658 48.0291 24.3948 48.0291C24.6768 48.0291 24.9119 47.9825 25.1469 47.8426C25.3348 47.7492 25.5228 47.5628 25.664 47.3763C25.8049 47.1897 25.8989 46.9565 25.993 46.6768C26.0399 46.397 26.0869 46.1173 26.0869 45.7909C26.0869 45.5467 26.0511 45.3379 26.0107 45.1027L25.993 44.9981C25.9459 44.7651 25.8519 44.5318 25.7109 44.3453C25.5699 44.1589 25.3819 43.9723 25.1938 43.879C24.9589 43.7391 24.7238 43.6926 24.3948 43.6926C24.0658 43.6926 23.7837 43.7391 23.4547 43.879C23.1257 44.0655 22.8907 44.2054 22.7027 44.392ZM27.3561 40.1953C27.309 40.1953 27.262 40.207 27.2151 40.2186C27.168 40.2304 27.121 40.242 27.074 40.242C27.0317 40.242 26.98 40.2514 26.923 40.2617C26.8532 40.2744 26.7756 40.2886 26.698 40.2886C26.6326 40.2886 26.557 40.2986 26.4761 40.3094C26.3826 40.3218 26.2817 40.3352 26.181 40.3352C25.993 40.3352 25.7579 40.3818 25.5228 40.4285C25.1469 40.4751 24.7709 40.5684 24.4419 40.6616C24.1128 40.7549 23.8778 40.8948 23.6427 41.1279C23.4078 41.3144 23.2198 41.5476 23.0786 41.8739C22.9377 42.1538 22.8437 42.5268 22.7496 42.9464C23.0317 42.76 23.3607 42.6201 23.6898 42.5268C24.0188 42.4336 24.3478 42.3869 24.6768 42.3869C25.6169 42.3869 26.3689 42.6667 26.933 43.2728C27.497 43.879 27.779 44.7184 27.779 45.8841C27.779 46.4437 27.6851 46.91 27.5441 47.3763C27.403 47.8426 27.168 48.2155 26.8859 48.542C26.604 48.8684 26.2279 49.1016 25.8519 49.288C25.4289 49.4746 24.9589 49.5679 24.4419 49.5679C23.7837 49.5679 23.2667 49.4746 22.7967 49.2415C22.3737 49.0083 21.9977 48.7285 21.7156 48.3089C21.4336 47.9358 21.2456 47.4228 21.1516 46.8633C21.0105 46.3038 20.9636 45.6976 20.9636 44.9981C20.9636 44.1122 21.0575 43.3195 21.1985 42.6201C21.3396 41.9206 21.5746 41.3611 21.9506 40.8481C22.2796 40.3352 22.7496 39.9622 23.3137 39.6358C23.8778 39.3094 24.5358 39.1228 25.3348 38.983C25.7579 38.9363 26.0869 38.8897 26.3689 38.8431L27.2151 38.7032L27.3561 40.1953ZM35.0643 44.0655C35.3933 44.4852 35.5814 45.0448 35.5814 45.7909C35.5814 46.4902 35.4404 47.0499 35.1584 47.4228C34.8763 47.8426 34.4533 48.0291 33.8422 48.0291C33.5602 48.0291 33.2783 47.9825 33.0432 47.8891C32.8082 47.7959 32.6201 47.7027 32.4791 47.6094V43.5527C32.5115 43.5447 32.5423 43.5367 32.5722 43.5289C32.7169 43.4914 32.8405 43.4594 32.9962 43.4594H33.4663C34.1712 43.4594 34.7353 43.6459 35.0643 44.0655ZM37.0385 47.283C37.1795 46.8167 37.2736 46.3504 37.2736 45.7909C37.2736 45.1847 37.2265 44.6717 36.9444 44.2054C36.8035 43.7391 36.5685 43.3662 36.2395 43.0397C35.9574 42.7133 35.5814 42.4801 35.1114 42.2937C34.6883 42.1072 34.1712 42.0139 33.6073 42.0139C33.0903 42.0139 32.5732 42.0605 32.0562 42.1538C31.5391 42.247 31.1161 42.3402 30.787 42.4336V51.806H32.4322V49.0549C32.6201 49.1481 32.8552 49.2415 33.1372 49.3347C33.4193 49.4279 33.7483 49.4746 34.0773 49.4746C34.5943 49.4746 35.0174 49.3814 35.4404 49.1948C35.8164 49.0083 36.1454 48.7752 36.4274 48.4488C36.7095 48.1223 36.8975 47.7492 37.0385 47.283ZM46.6244 42.2004V49.3347H44.9794V47.7959V46.397V45.2779V44.5785C44.6973 44.9515 44.4153 45.3246 44.1333 45.7442C43.8512 46.1638 43.5693 46.5836 43.2403 47.0032C42.9582 47.4228 42.6762 47.8426 42.4411 48.2622C42.3014 48.5118 42.1616 48.7449 42.0316 48.9616C41.9432 49.1091 41.8593 49.249 41.7831 49.3814H40.3261V42.2004H41.9711V43.6925V44.9981V46.0239V46.6768C42.2062 46.3038 42.4882 45.8841 42.7701 45.4644C43.0522 45.0448 43.3342 44.6251 43.6163 44.2521C43.7103 44.1278 43.8042 43.9983 43.8983 43.8686C44.0863 43.6096 44.2743 43.3506 44.4623 43.133C44.6431 42.8938 44.824 42.693 44.9924 42.5059C45.0867 42.4011 45.177 42.3007 45.2614 42.2004H46.6244ZM51.7983 45.0448L52.4563 44.392C52.6912 44.1122 52.9263 43.8791 53.2083 43.5994C53.4432 43.3196 53.6783 43.0864 53.9133 42.8533C54.0458 42.722 54.1633 42.5905 54.2659 42.4758C54.3454 42.3869 54.4159 42.3081 54.4774 42.247H56.4516C56.2636 42.4801 56.0285 42.76 55.7465 43.0397C55.5004 43.2839 55.2899 43.5283 55.0528 43.8034L54.9475 43.9257L54.1014 44.7651L53.3494 45.5111C53.6314 45.7442 53.9133 46.0239 54.2425 46.3504C54.5715 46.6768 54.8535 47.0032 55.1354 47.3296C55.2765 47.5162 55.4175 47.691 55.5585 47.8658C55.6995 48.0407 55.8405 48.2155 55.9816 48.4021C56.0748 48.5501 56.168 48.6907 56.2583 48.8269C56.3957 49.0341 56.5262 49.231 56.6396 49.4279H54.7125C54.5246 49.1483 54.3363 48.8683 54.1014 48.5886C54.0294 48.5028 53.9573 48.4127 53.8838 48.3207C53.7179 48.1131 53.5449 47.8967 53.3494 47.7027C53.1143 47.4228 52.8324 47.1431 52.5503 46.91C52.4163 46.7993 52.293 46.6885 52.1752 46.5827C52.0452 46.466 51.9214 46.3549 51.7983 46.2572V49.4746H50.1531V42.2004H51.7983V45.0448ZM61.6212 48.169C62.1383 48.169 62.5143 48.1223 62.7963 48.0757V46.2572C62.7417 46.2301 62.6712 46.2188 62.5848 46.2048C62.5226 46.1948 62.4521 46.1834 62.3733 46.1639C62.1853 46.1173 61.9973 46.1173 61.8093 46.1173C61.6212 46.1173 61.4332 46.1173 61.2452 46.1639C61.0572 46.2105 60.8691 46.2572 60.7282 46.3038C60.5872 46.397 60.4462 46.4902 60.3521 46.6302C60.2582 46.7701 60.2111 46.91 60.2111 47.1431C60.2111 47.5162 60.3521 47.7959 60.5872 47.9358C60.8691 48.1223 61.1983 48.169 61.6212 48.169ZM61.4803 42.0139C62.0443 42.0139 62.5143 42.0605 62.8904 42.2004C63.2664 42.3402 63.5484 42.5268 63.7835 42.76C64.0184 42.9931 64.1594 43.3195 64.2535 43.6459C64.3474 44.0189 64.3944 44.392 64.3944 44.8116V49.1481L64.3059 49.166C64.0609 49.2157 63.6769 49.2934 63.2194 49.3347C62.7024 49.4279 62.1383 49.4279 61.4803 49.4279C61.0572 49.4279 60.6342 49.3814 60.3052 49.288C59.9291 49.1948 59.6472 49.0549 59.4121 48.9151C59.177 48.7285 58.9421 48.4954 58.801 48.2155C58.66 47.9358 58.5661 47.5628 58.5661 47.1431C58.5661 46.7234 58.66 46.397 58.801 46.1173C58.9421 45.8375 59.177 45.6043 59.4591 45.4178C59.7411 45.2313 60.0701 45.0915 60.3991 45.0448C60.7752 44.9515 61.1512 44.9515 61.5273 44.9515C61.7153 44.9515 61.9032 44.9515 62.0912 44.9981C62.2793 44.9981 62.5143 45.0448 62.7494 45.0915V44.8116C62.7494 44.6252 62.7494 44.4386 62.7024 44.2521C62.6553 44.0655 62.5614 43.9257 62.4673 43.7858C62.3733 43.6459 62.1853 43.5527 61.9973 43.4594C61.8093 43.3662 61.5742 43.3662 61.2922 43.3662C60.9162 43.3662 60.5401 43.4127 60.2111 43.4594C60.0109 43.4878 59.8453 43.5334 59.6935 43.5754C59.5961 43.6023 59.504 43.6276 59.4121 43.6459L59.2241 42.2937C59.3617 42.2254 59.5749 42.1821 59.8453 42.1273C59.9442 42.1072 60.0507 42.0855 60.1642 42.0605C60.3701 42.0605 60.5761 42.0495 60.7874 42.0381C61.0101 42.0262 61.239 42.0139 61.4803 42.0139ZM74.0747 48.1365C74.0151 48.1286 73.968 48.1223 73.9336 48.1223H73.8867V46.1639H75.2498C75.7198 46.1639 76.1428 46.2572 76.4248 46.397C76.7538 46.5836 76.8948 46.8167 76.8948 47.1897C76.8948 47.6094 76.7538 47.8426 76.4248 47.9825C76.0958 48.1223 75.7198 48.169 75.2027 48.169H74.4977C74.3189 48.169 74.1779 48.1502 74.0747 48.1365ZM76.1898 44.9049C75.9078 45.0448 75.5788 45.0915 75.1557 45.0915V45.0448H73.9336V43.3662C74.0747 43.3195 74.2157 43.3195 74.4506 43.3195H75.0147C75.1388 43.3195 75.2498 43.3325 75.3546 43.3448C75.4483 43.3558 75.537 43.3662 75.6258 43.3662C75.8138 43.4128 76.0019 43.4594 76.1428 43.506C76.2838 43.5993 76.3778 43.6925 76.4717 43.7858C76.5657 43.8791 76.6128 44.019 76.6128 44.2054C76.6128 44.5318 76.4719 44.7651 76.1898 44.9049ZM74.3096 49.428C74.5917 49.4746 74.8267 49.4746 75.1088 49.4746C76.2368 49.4746 77.0828 49.2881 77.6469 48.9151C78.211 48.4954 78.493 47.9358 78.493 47.2364C78.493 46.7234 78.352 46.3505 78.1169 46.0706C77.882 45.7909 77.5999 45.6043 77.2709 45.4644C77.553 45.3712 77.7879 45.138 77.9289 44.9049C78.07 44.6252 78.164 44.3454 78.164 44.019C78.164 43.4128 77.882 42.8999 77.3649 42.5735C76.8479 42.247 76.0958 42.0605 75.1088 42.0605H74.3096C74.1622 42.0605 74.0148 42.0733 73.8741 42.0854C73.7457 42.0965 73.6227 42.1072 73.5106 42.1072C73.3931 42.1305 73.2757 42.1421 73.1581 42.1538C73.0407 42.1654 72.9231 42.1772 72.8056 42.2004C72.5705 42.2004 72.3825 42.247 72.2415 42.2937V49.1948C72.3207 49.221 72.4147 49.2325 72.5236 49.2458C72.6085 49.2562 72.7025 49.2676 72.8056 49.288C72.9231 49.3114 73.0406 49.3231 73.158 49.3347C73.2756 49.3464 73.3931 49.358 73.5106 49.3814C73.6516 49.3814 73.7809 49.393 73.9101 49.4047C74.0394 49.4163 74.1686 49.428 74.3096 49.428ZM83.0554 42.2004H81.4104V49.3347H83.0554V42.2004ZM88.2252 45.0448L88.8833 44.392C89.1183 44.1122 89.3533 43.879 89.6353 43.5993C89.8703 43.3195 90.1053 43.0864 90.3402 42.8533C90.4727 42.722 90.5904 42.5904 90.693 42.4757C90.7724 42.387 90.843 42.308 90.9044 42.247H92.8786C92.6906 42.4801 92.4556 42.76 92.1736 43.0397C91.9274 43.2839 91.717 43.5281 91.48 43.8033L91.3745 43.9257L90.5284 44.7651L89.7763 45.5111C90.0583 45.7442 90.3401 46.0238 90.669 46.3501C90.998 46.6765 91.2805 47.0032 91.5625 47.3296C91.7035 47.5162 91.8445 47.691 91.9854 47.8658C92.1264 48.0406 92.2675 48.2155 92.4085 48.4021C92.5017 48.5501 92.5949 48.6907 92.6853 48.8269C92.8226 49.0341 92.9532 49.2311 93.0666 49.4279H91.1395C90.9515 49.1481 90.7635 48.8684 90.5284 48.5886C90.4566 48.5031 90.3848 48.4133 90.3116 48.3217C90.1456 48.1141 89.9719 47.8967 89.7763 47.7027C89.5414 47.4228 89.2593 47.1431 88.9773 46.91C88.8433 46.7993 88.72 46.6885 88.6022 46.5828C88.4721 46.466 88.3485 46.3551 88.2252 46.2572V49.4746H86.5801V42.2004H88.2252V45.0448ZM99.9766 45.7442C99.9766 45.0448 99.8356 44.4852 99.5066 44.0655C99.1774 43.6459 98.7545 43.4594 98.2374 43.4594C97.6733 43.4594 97.2504 43.6459 96.9683 44.0655C96.6393 44.4852 96.4983 45.0448 96.4983 45.7442C96.4983 46.4437 96.6393 47.0499 96.9683 47.4695C97.2973 47.8891 97.7204 48.0757 98.2374 48.0757C98.8015 48.0757 99.2245 47.8891 99.5066 47.4695C99.8356 47.0499 99.9766 46.4902 99.9766 45.7442ZM101.669 45.7442C101.669 46.3038 101.575 46.8167 101.434 47.283C101.246 47.7492 101.058 48.1223 100.729 48.4488C100.447 48.7752 100.071 49.0083 99.6475 49.1948C99.2244 49.3814 98.7545 49.4746 98.2374 49.4746C97.7204 49.4746 97.2504 49.3814 96.8273 49.1948C96.4042 49.0083 96.0283 48.7752 95.7462 48.4488C95.4642 48.1223 95.2291 47.7027 95.0411 47.283C94.8531 46.8167 94.8062 46.3038 94.8062 45.7442C94.8062 45.1847 94.9001 44.6717 95.0411 44.2054C95.2291 43.7391 95.4642 43.3662 95.7462 43.0397C96.0752 42.7133 96.4042 42.4801 96.8273 42.2937C97.2504 42.1072 97.7204 42.0139 98.2374 42.0139C98.7545 42.0139 99.2244 42.1072 99.6475 42.2937C100.071 42.4801 100.447 42.7133 100.729 43.0397C101.011 43.3662 101.246 43.7391 101.434 44.2054C101.622 44.6717 101.669 45.1847 101.669 45.7442ZM109.097 49.3347H110.742V42.2004H109.097V44.9981H106.371V42.2004H104.726V49.3347H106.371V46.3504H109.097V49.3347Z" fill="#114C8C"/>
</g>
</g>
</g>
<defs>
<filter id="filter0_df_0_1" x="-116" y="-71" width="432" height="202" filterUnits="userSpaceOnUse" color-interpolation-filters="sRGB">
<feFlood flood-opacity="0" result="BackgroundImageFix"/>
<feColorMatrix in="SourceAlpha" type="matrix" values="0 0 0 0 0 0 0 0 0 0 0 0 0 0 0 0 0 0 127 0" result="hardAlpha"/>
<feOffset dy="4"/>
<feGaussianBlur stdDeviation="5.5"/>
<feComposite in2="hardAlpha" operator="out"/>
<feColorMatrix type="matrix" values="0 0 0 0 0 0 0 0 0 0 0 0 0 0 0 0 0 0 0.06 0"/>
<feBlend mode="normal" in2="BackgroundImageFix" result="effect1_dropShadow_0_1"/>
<feBlend mode="normal" in="SourceGraphic" in2="effect1_dropShadow_0_1" result="shape"/>
<feGaussianBlur stdDeviation="0.5" result="effect2_foregroundBlur_0_1"/>
</filter>
<linearGradient id="paint0_linear_0_1" x1="128.396" y1="24.6914" x2="200.001" y2="24.6914" gradientUnits="userSpaceOnUse">
<stop stop-color="#0F58A3"/>
<stop offset="1" stop-color="#3292CD"/>
</linearGradient>
<clipPath id="clip0_0_1">
<rect width="1440" height="8361" fill="white" transform="translate(-620 -5192)"/>
</clipPath>
<clipPath id="clip1_0_1">
<rect width="200" height="51.8519" fill="white"/>
</clipPath>
</defs>
</svg>
