<svg width="50" height="56" viewBox="0 0 50 56" fill="none" xmlns="http://www.w3.org/2000/svg">
<g id="Group 1">
<path id="Vector" d="M19.6709 3.61427C19.6709 5.34189 19.7846 7.11498 19.8982 7.59235C20.2392 8.79714 21.1712 9.57002 24.1036 11.0931L26.7178 12.4342V14.5256C26.7178 15.6849 26.786 16.6396 26.8542 16.6396C26.9451 16.6396 27.9453 16.1623 29.0819 15.594C33.5828 13.2981 34.8558 11.9796 35.3787 9.16085C35.6287 7.68328 35.606 4.75086 35.3105 4.47808C35.2423 4.38715 34.333 4.79632 33.2873 5.34189C32.2417 5.91019 30.6959 6.7058 29.8775 7.16044L28.3772 7.95606L28.0135 6.66034C27.5362 4.93272 26.5814 4.0689 22.967 2.11396C21.3531 1.22742 19.9437 0.499994 19.8528 0.499994C19.7391 0.499994 19.6709 1.90937 19.6709 3.61427ZM22.6943 3.59153C25.4675 5.02364 26.4905 6.54668 26.6723 9.61549C26.7405 10.6157 26.6951 11.4113 26.6269 11.4113C26.5359 11.4113 26.195 11.0931 25.8767 10.7294C25.5585 10.3429 24.8765 9.82008 24.3537 9.54729C22.9216 8.8426 21.9668 7.81967 21.6031 6.54668C21.2849 5.47828 21.1258 3.0005 21.3758 3.0005C21.444 3.0005 22.035 3.27329 22.6943 3.59153ZM33.7647 8.18338C33.7647 9.88827 32.9463 11.5932 31.7643 12.3888C30.8777 12.9571 28.65 14.1391 28.4227 14.1391C28.3545 14.1391 28.309 13.4799 28.309 12.6616C28.309 11.0476 28.6727 9.93374 29.3774 9.31997C29.8775 8.86534 33.3101 6.86493 33.5828 6.86493C33.6965 6.86493 33.7647 7.45596 33.7647 8.18338Z" fill="#309C54"/>
<path id="Vector_2" d="M37.7403 14.5258C36.8083 14.7304 35.8536 15.1623 33.8759 16.3217C30.4206 18.3221 27.5564 19.0268 25.1014 18.4585C24.4194 18.3221 22.4872 17.5492 20.805 16.7536C19.1229 15.9807 16.9861 15.1396 16.0768 14.935C12.667 14.1167 8.18884 15.0259 5.46101 17.0946C2.93777 19.0495 1.00556 22.6411 0.369064 26.6647C0.00535335 28.8697 0.0735491 33.6661 0.482723 35.6892C1.55112 41.0312 4.50627 46.8279 7.89333 50.3058C9.64368 52.1017 10.9621 53.0337 13.2353 54.0793C15.5312 55.1477 17.3953 55.2614 21.2597 54.6476C26.4653 53.8066 26.2607 53.8066 30.0342 54.6931C33.8304 55.6024 35.7172 55.716 38.0358 55.1705C40.2181 54.6476 41.7639 53.8293 43.196 52.3744C44.6736 50.8969 45.5828 49.1238 46.8558 45.3958C47.606 43.2135 47.7196 42.6225 47.6969 40.8494C47.6969 38.3489 47.1286 36.7122 45.7874 35.1891C43.9007 33.0296 41.6275 32.2795 37.1266 32.2795C35.5126 32.2795 34.2169 32.1885 34.2169 32.0976C34.2169 31.9839 34.4215 30.9837 34.6942 29.8471C35.1262 27.9831 35.2398 27.7331 35.8536 27.4148C36.2173 27.233 36.4901 27.0284 36.4446 26.9829C36.2627 26.8011 30.6025 26.2328 30.1706 26.3464C29.6932 26.4601 29.6705 26.5737 29.6705 29.6198C29.6705 32.4386 29.625 32.8023 29.2841 32.9614C28.7158 33.166 22.5099 33.166 21.2142 32.9387C19.6685 32.6659 19.7594 33.1887 21.487 34.3253C23.01 35.3483 24.2603 35.6892 27.3518 35.8938L29.4432 36.0302V37.0759C29.4659 40.0083 30.4434 44.191 31.2845 44.9638C31.7618 45.3958 31.7846 45.373 32.171 42.6679C32.3074 41.7814 32.6256 39.9174 32.8984 38.508L33.3531 35.962H35.899C39.8089 35.962 41.8321 36.6667 42.6504 38.2807C43.4233 39.781 43.1732 42.0087 41.9457 45.1457C40.4454 48.9419 39.2406 50.2376 36.7629 50.7605C35.1943 51.0787 33.7168 50.9423 30.5798 50.1694C27.511 49.442 25.306 49.442 21.0551 50.1694C19.2593 50.4877 17.4407 50.7377 17.0543 50.7377C16.6451 50.7377 15.4858 50.3286 14.4628 49.8057C8.34796 46.7369 3.25602 36.553 3.86978 28.5742C4.39261 21.9819 7.14317 18.413 12.3942 17.5037C14.3492 17.1627 15.6222 17.3901 18.4864 18.5721C23.5783 20.7089 23.9421 20.7999 26.3744 20.8226C29.4886 20.8226 31.5118 20.1634 34.8534 18.0266C37.0584 16.6172 37.9449 16.2307 39.4907 16.0489C42.855 15.6624 46.4694 17.5492 47.856 20.3907C48.4016 21.5045 48.9699 24.3233 48.9926 26.0736C49.0381 27.9831 49.3336 28.2786 49.6291 26.7556C50.1747 24.1187 49.7655 21.2545 48.6062 19.0722C47.4923 17.0264 44.9236 15.1851 42.3776 14.6168C41.3774 14.3895 38.6041 14.3213 37.7403 14.5258Z" fill="#309C54"/>
</g>
</svg>
