<svg width="56" height="57" viewBox="0 0 56 57" fill="none" xmlns="http://www.w3.org/2000/svg">
<g id="healthicons:social-work-outline">
<g id="Group">
<path id="Vector" d="M38.2373 42.5082C38.69 41.8863 39.1718 41.3998 39.6571 40.9075C40.2953 40.26 40.9405 39.6067 41.5355 38.6325C41.6848 38.3875 41.8365 38.1542 41.9835 37.9255C42.5143 37.1018 42.9868 36.3715 43.0731 35.6248C43.1851 34.6728 43.2551 28.9562 42.9471 28.0905C42.638 27.226 40.8588 26.7407 40.244 28.6773C39.9406 29.6328 39.845 30.8613 39.7586 31.9767C39.6688 33.12 39.5895 34.1443 39.3036 34.6273C38.7401 35.5817 36.926 37.9558 36.926 37.9558L38.4916 34.9843C38.4916 34.9843 38.7296 34.5737 38.6048 33.7932C38.4788 33.0115 37.535 31.9195 37.0916 32.7875C36.6483 33.6543 35.8725 34.4372 35.8725 34.4372L33.1331 37.7377C33.1331 37.7377 32.2406 38.895 32.2161 39.5297C32.208 39.742 32.0761 40.2133 31.9245 40.7465C31.7553 41.3485 31.5628 42.0298 31.5021 42.5082V43.6667H38.2373V42.5082ZM16.542 42.5082C16.0881 41.8863 15.6051 41.3998 15.1186 40.9075C14.477 40.26 13.8306 39.6067 13.2333 38.6325C13.084 38.3875 12.9311 38.153 12.7841 37.9243C12.251 37.1018 11.7785 36.3727 11.6898 35.626C11.5778 34.6728 11.9266 28.9562 12.2358 28.0905C12.5461 27.226 14.3311 26.7407 14.9483 28.6773C15.2516 29.6328 15.3485 30.8613 15.436 31.9767C15.5246 33.12 15.6051 34.1443 15.891 34.6273C16.4568 35.5817 18.2768 37.9558 18.2768 37.9558L16.7065 34.9843C16.7065 34.9843 16.4673 34.5737 16.5933 33.7932C16.7193 33.0115 17.6666 31.9195 18.1111 32.7875C18.5568 33.6543 19.335 34.4372 19.335 34.4372L22.0825 37.7377C22.0825 37.7377 22.9785 38.895 23.003 39.5297C23.0205 39.9812 23.2211 41.6063 23.3355 42.5082V43.6667H16.542V42.5082ZM23.08 13.3333C19.8565 13.3333 17.5021 16.817 17.5021 20.5748C17.5021 28.9632 28.0021 34.3333 28.0021 34.3333C28.0021 34.3333 38.5021 28.6167 38.5021 20.5748C38.5021 16.8182 36.1478 13.3333 32.9243 13.3333C30.6866 13.3333 29.0276 14.8967 28.0021 17.1133C26.9778 14.8967 25.3176 13.3333 23.08 13.3333Z" fill="#309C54"/>
<path id="Vector_2" fill-rule="evenodd" clip-rule="evenodd" d="M7.00214 46C7.00214 46.9283 7.37089 47.8185 8.02726 48.4749C8.68364 49.1312 9.57388 49.5 10.5021 49.5H45.5021C46.4304 49.5 47.3206 49.1312 47.977 48.4749C48.6334 47.8185 49.0021 46.9283 49.0021 46V11C49.0021 10.0717 48.6334 9.1815 47.977 8.52513C47.3206 7.86875 46.4304 7.5 45.5021 7.5H10.5021C9.57388 7.5 8.68364 7.86875 8.02726 8.52513C7.37089 9.1815 7.00214 10.0717 7.00214 11V46ZM9.33547 11C9.33547 10.6906 9.45839 10.3938 9.67718 10.175C9.89597 9.95625 10.1927 9.83333 10.5021 9.83333H45.5021C45.8116 9.83333 46.1083 9.95625 46.3271 10.175C46.5459 10.3938 46.6688 10.6906 46.6688 11V46C46.6688 46.3094 46.5459 46.6062 46.3271 46.825C46.1083 47.0438 45.8116 47.1667 45.5021 47.1667H38.5021V46C38.5021 45.6906 38.3792 45.3938 38.1604 45.175C37.9416 44.9562 37.6449 44.8333 37.3355 44.8333H32.6688C32.3594 44.8333 32.0626 44.9562 31.8438 45.175C31.6251 45.3938 31.5021 45.6906 31.5021 46V47.1667H23.3355V46C23.3355 45.6906 23.2126 45.3938 22.9938 45.175C22.775 44.9562 22.4782 44.8333 22.1688 44.8333H17.5021C17.1927 44.8333 16.896 44.9562 16.6772 45.175C16.4584 45.3938 16.3355 45.6906 16.3355 46V47.1667H10.5021C10.1927 47.1667 9.89597 47.0438 9.67718 46.825C9.45839 46.6062 9.33547 46.3094 9.33547 46V11Z" fill="#309C54"/>
</g>
</g>
</svg>
