<svg width="55" height="56" viewBox="0 0 55 56" fill="none" xmlns="http://www.w3.org/2000/svg">
<g id="octicon:law-24">
<path id="Vector" d="M29.2205 6.80209V10.8125H33.7466C34.5509 10.8125 35.337 11.0554 36.0016 11.5069L39.8905 14.1515C39.9845 14.2156 40.0968 14.25 40.2114 14.25H49.6118C50.0676 14.25 50.5048 14.4311 50.8271 14.7534C51.1494 15.0757 51.3305 15.5129 51.3305 15.9688C51.3305 16.4246 51.1494 16.8618 50.8271 17.1841C50.5048 17.5064 50.0676 17.6875 49.6118 17.6875H45.9955L53.7093 35.2875C53.864 35.6394 53.8962 36.033 53.8006 36.4053C53.705 36.7776 53.4873 37.107 53.1822 37.3408C52.953 37.5104 52.717 37.6685 52.4718 37.8129C51.8905 38.1598 51.2855 38.4654 50.6614 38.7273C48.5885 39.5942 46.3632 40.0375 44.1164 40.0313C41.8704 40.0383 39.6458 39.5957 37.5736 38.7296C36.9491 38.4675 36.3441 38.1612 35.7632 37.8129C35.5201 37.6722 35.2852 37.5176 35.0597 37.35L35.0482 37.3408C34.7432 37.107 34.5254 36.7776 34.4298 36.4053C34.3342 36.033 34.3664 35.6394 34.5211 35.2875L42.2395 17.6875H40.2091C39.4047 17.6875 38.6186 17.4446 37.9541 16.9931L34.0651 14.3486C33.9706 14.2839 33.8587 14.2495 33.7443 14.25H29.2205V47.4792H39.5032C39.9591 47.4792 40.3962 47.6603 40.7186 47.9826C41.0409 48.3049 41.222 48.7421 41.222 49.1979C41.222 49.6538 41.0409 50.0909 40.7186 50.4133C40.3962 50.7356 39.9591 50.9167 39.5032 50.9167H15.5003C15.0445 50.9167 14.6073 50.7356 14.285 50.4133C13.9626 50.0909 13.7816 49.6538 13.7816 49.1979C13.7816 48.7421 13.9626 48.3049 14.285 47.9826C14.6073 47.6603 15.0445 47.4792 15.5003 47.4792H25.783V14.25H21.257C21.1426 14.25 21.0308 14.2843 20.9361 14.3486L17.0495 16.9931C16.3849 17.4446 15.5989 17.6875 14.7945 17.6875H12.7641L20.4824 35.2875C20.6318 35.6294 20.6658 36.0107 20.5794 36.3737C20.493 36.7366 20.2909 37.0617 20.0034 37.2996C19.8201 37.4486 19.6368 37.5883 19.293 37.8106C18.7135 38.1859 18.1068 38.5176 17.478 38.8029C15.4082 39.7432 13.1605 40.2278 10.8872 40.2238C8.61374 40.2285 6.3659 39.744 4.29635 38.8029C3.66759 38.5176 3.06092 38.1859 2.48135 37.8106C2.23627 37.6548 1.99988 37.4857 1.77323 37.3042C1.48809 37.0635 1.28753 36.7379 1.20092 36.375C1.11432 36.0121 1.14623 35.631 1.29198 35.2875L9.00802 17.6875H5.39406C4.93822 17.6875 4.50105 17.5064 4.17872 17.1841C3.85639 16.8618 3.67531 16.4246 3.67531 15.9688C3.67531 15.5129 3.85639 15.0757 4.17872 14.7534C4.50105 14.4311 4.93822 14.25 5.39406 14.25H14.7945C14.9091 14.25 15.0214 14.2156 15.1176 14.1515L19.002 11.5069C19.6666 11.0531 20.4549 10.8125 21.2593 10.8125H25.783V6.80209C25.783 6.34625 25.9641 5.90908 26.2864 5.58675C26.6088 5.26443 27.0459 5.08334 27.5018 5.08334C27.9576 5.08334 28.3948 5.26443 28.7171 5.58675C29.0394 5.90908 29.2205 6.34625 29.2205 6.80209ZM5.02739 35.3288C6.83103 36.2889 8.84389 36.7888 10.8872 36.784C12.9305 36.7888 14.9433 36.2889 16.747 35.3288L10.8872 21.9683L5.02739 35.3288ZM38.2795 35.2738C38.4674 35.3654 38.6782 35.464 38.9097 35.5625C40.1243 36.0735 41.9003 36.5938 44.1164 36.5938C46.1366 36.5994 48.132 36.1482 49.9532 35.2738L44.1164 21.966L38.2795 35.2738Z" fill="#309C54"/>
</g>
</svg>
