<svg width="104" height="104" viewBox="0 0 104 104" fill="none" xmlns="http://www.w3.org/2000/svg">
<path d="M100.75 94.25H3.25V100.75H100.75V94.25Z" stroke="#1E1E1C" stroke-width="3" stroke-linejoin="round"/>
<path d="M100.75 32.5H22.75V39H100.75V32.5Z" stroke="#1E1E1C" stroke-width="3" stroke-linejoin="round"/>
<path d="M26 39V45.5H97.5V39" stroke="#1E1E1C" stroke-width="3" stroke-linejoin="round"/>
<path d="M29.25 45.5V94.25" stroke="#1E1E1C" stroke-width="3" stroke-linejoin="round"/>
<path d="M94.25 45.5V94.25" stroke="#1E1E1C" stroke-width="3" stroke-linejoin="round"/>
<path d="M87.75 52H35.75V71.5H87.75V52Z" stroke="#1E1E1C" stroke-width="3" stroke-linejoin="round"/>
<path d="M48.75 58.5H42.25V65H48.75V58.5Z" stroke="#1E1E1C" stroke-width="3" stroke-linejoin="round"/>
<path d="M61.75 58.5H55.25V65H61.75V58.5Z" stroke="#1E1E1C" stroke-width="3" stroke-linejoin="round"/>
<path d="M66.625 58.5H79.625" stroke="#1E1E1C" stroke-width="3" stroke-linejoin="round"/>
<path d="M69.875 65H82.875" stroke="#1E1E1C" stroke-width="3" stroke-linejoin="round"/>
<path d="M35.75 94.25V84.5H87.75V94.25" stroke="#1E1E1C" stroke-width="3" stroke-linejoin="round"/>
<path d="M39 84.5V79.625C39 79.194 39.1712 78.7807 39.476 78.476C39.7807 78.1712 40.194 78 40.625 78H82.875C83.306 78 83.7193 78.1712 84.024 78.476C84.3288 78.7807 84.5 79.194 84.5 79.625V84.5" stroke="#1E1E1C" stroke-width="3" stroke-linejoin="round"/>
<path d="M13 68.25C16.5899 68.25 19.5 65.3399 19.5 61.75C19.5 58.1602 16.5899 55.25 13 55.25C9.41015 55.25 6.5 58.1602 6.5 61.75C6.5 65.3399 9.41015 68.25 13 68.25Z" stroke="#1E1E1C" stroke-width="3" stroke-linejoin="round"/>
<path d="M13 68.25V84.5" stroke="#1E1E1C" stroke-width="3" stroke-linejoin="round"/>
<path d="M16.25 84.5H9.75V94.25H16.25V84.5Z" stroke="#1E1E1C" stroke-width="3" stroke-linejoin="round"/>
<path d="M42.2499 11.375C41.6495 11.3836 41.0532 11.4766 40.4787 11.6512C40.1697 10.1948 39.3702 8.88855 38.2136 7.95091C37.0571 7.01328 35.6138 6.50109 34.1249 6.5C32.6552 6.50399 31.2318 7.01479 30.0949 7.94625C29.3076 6.28128 27.9779 4.9332 26.3239 4.12303C24.6699 3.31286 22.7898 3.08866 20.9916 3.48719C19.1935 3.88572 17.5842 4.88334 16.4274 6.31649C15.2706 7.74963 14.635 9.53327 14.6249 11.375C14.6249 11.375 14.6249 11.5375 14.6249 11.6187C14.0968 11.4643 13.5501 11.3823 12.9999 11.375C11.9439 11.3578 10.8997 11.5982 9.95745 12.0753C9.01525 12.5524 8.20351 13.252 7.59246 14.1134C6.98141 14.9748 6.58946 15.9721 6.45053 17.0191C6.3116 18.066 6.42987 19.1311 6.79511 20.122C7.16035 21.113 7.76156 22 8.54671 22.7064C9.33186 23.4127 10.2773 23.9172 11.3012 24.176C12.3252 24.4348 13.3967 24.4402 14.4232 24.1917C15.4497 23.9432 16.4002 23.4484 17.1924 22.75C17.7718 23.7052 18.5876 24.4949 19.561 25.0429C20.5345 25.591 21.6328 25.8789 22.7499 25.8789C23.8671 25.8789 24.9653 25.591 25.9388 25.0429C26.9123 24.4949 27.728 23.7052 28.3074 22.75C28.9429 23.3058 29.6818 23.7308 30.4817 24.0006C31.2817 24.2704 32.127 24.3798 32.9693 24.3224C33.8116 24.2651 34.6342 24.0421 35.3902 23.6663C36.1462 23.2905 36.8207 22.7693 37.3749 22.1325C38.0889 22.9562 38.9986 23.587 40.0203 23.9671C41.0419 24.3471 42.1428 24.4641 43.2215 24.3073C44.3002 24.1505 45.3222 23.7249 46.1933 23.0697C47.0645 22.4145 47.7569 21.5507 48.2069 20.5579C48.6568 19.565 48.8498 18.4749 48.7681 17.3879C48.6865 16.3009 48.3328 15.2519 47.7395 14.3375C47.1463 13.423 46.3326 12.6723 45.3733 12.1547C44.414 11.637 43.34 11.3689 42.2499 11.375Z" stroke="#1E1E1C" stroke-width="3" stroke-linejoin="round"/>
<path d="M61.7499 11.375C62.3503 11.3836 62.9466 11.4766 63.5211 11.6512C63.8301 10.1948 64.6296 8.88855 65.7862 7.95091C66.9427 7.01328 68.386 6.50109 69.8749 6.5C71.3446 6.50399 72.768 7.01479 73.9049 7.94625C74.6922 6.28128 76.0219 4.9332 77.6759 4.12303C79.3299 3.31286 81.21 3.08866 83.0081 3.48719C84.8063 3.88572 86.4156 4.88334 87.5724 6.31649C88.7292 7.74963 89.3647 9.53327 89.3749 11.375C89.3749 11.375 89.3749 11.5375 89.3749 11.6187C89.903 11.4643 90.4497 11.3823 90.9999 11.375C92.0559 11.3578 93.1001 11.5982 94.0423 12.0753C94.9845 12.5524 95.7963 13.252 96.4073 14.1134C97.0184 14.9748 97.4103 15.9721 97.5493 17.0191C97.6882 18.066 97.5699 19.1311 97.2047 20.122C96.8394 21.113 96.2382 22 95.4531 22.7064C94.6679 23.4127 93.7225 23.9172 92.6986 24.176C91.6746 24.4348 90.6031 24.4402 89.5766 24.1917C88.5501 23.9432 87.5996 23.4484 86.8074 22.75C86.228 23.7052 85.4122 24.4949 84.4388 25.0429C83.4653 25.591 82.367 25.8789 81.2499 25.8789C80.1327 25.8789 79.0345 25.591 78.061 25.0429C77.0875 24.4949 76.2718 23.7052 75.6924 22.75C75.0569 23.3058 74.318 23.7308 73.5181 24.0006C72.7181 24.2704 71.8728 24.3798 71.0305 24.3224C70.1882 24.2651 69.3655 24.0421 68.6096 23.6663C67.8536 23.2905 67.1791 22.7693 66.6249 22.1325C65.9109 22.9562 65.0012 23.587 63.9795 23.9671C62.9579 24.3471 61.857 24.4641 60.7783 24.3073C59.6996 24.1505 58.6776 23.7249 57.8065 23.0697C56.9353 22.4145 56.2429 21.5507 55.7929 20.5579C55.343 19.565 55.15 18.4749 55.2316 17.3879C55.3133 16.3009 55.667 15.2519 56.2603 14.3375C56.8535 13.423 57.6672 12.6723 58.6265 12.1547C59.5858 11.637 60.6598 11.3689 61.7499 11.375Z" stroke="#1E1E1C" stroke-width="3" stroke-linejoin="round"/>
<path d="M42.25 11.8463C42.518 9.5418 43.599 7.40843 45.2987 5.8294C46.9984 4.25037 49.2054 3.32917 51.5233 3.23129C53.8413 3.1334 56.1181 3.86525 57.9449 5.29536C59.7717 6.72546 61.0287 8.7601 61.49 11.0338" stroke="#1E1E1C" stroke-width="3" stroke-linejoin="round"/>
<path d="M56.4688 21.6612C55.0869 22.3738 53.5547 22.7456 52 22.7456C50.4453 22.7456 48.9131 22.3738 47.5312 21.6612" stroke="#1E1E1C" stroke-width="3" stroke-linejoin="round"/>
</svg>
