<svg width="100" height="101" viewBox="0 0 100 101" fill="none" xmlns="http://www.w3.org/2000/svg">
<g id="Group 18">
<path id="path1305" d="M81.5309 26.4719L51.277 0.441794C50.9886 0.158637 50.6006 0 50.1965 0C49.7923 0 49.4043 0.158637 49.116 0.441794L19.255 26.079C18.9247 26.1625 18.6307 26.3516 18.4179 26.6176C18.2051 26.8836 18.0851 27.2119 18.0762 27.5524V39.4379H1.57411C1.35961 39.4389 1.14756 39.4835 0.950841 39.569C0.754126 39.6546 0.576865 39.7793 0.429849 39.9355C0.282834 40.0917 0.169111 40.2761 0.0956415 40.4777C0.0221717 40.6792 -0.00951887 40.8936 0.00247453 41.1078V79.6127C0.00615833 80.0477 0.167468 80.4666 0.456469 80.7918C0.745469 81.1169 1.14256 81.3262 1.57411 81.3809H30.6493C31.0775 81.363 31.4817 81.1782 31.7754 80.8661C32.0691 80.554 32.229 80.1394 32.2209 79.7109V55.7436C32.2416 51.686 33.8626 47.8003 36.7319 44.9311C39.6011 42.0619 43.4867 40.4408 47.5443 40.4201H52.3574C56.4151 40.4408 60.3007 42.0619 63.1699 44.9311C66.0392 47.8003 67.6602 51.686 67.6809 55.7436V79.7109C67.687 80.1352 67.8517 80.542 68.1426 80.851C68.4334 81.16 68.8293 81.349 69.2525 81.3809H98.4259C98.6404 81.3799 98.8525 81.3352 99.0492 81.2497C99.2459 81.1641 99.4232 81.0394 99.5702 80.8832C99.7172 80.727 99.8309 80.5426 99.9044 80.341C99.9778 80.1395 100.01 79.9251 99.9975 79.7109V41.1078C99.9677 40.6747 99.7822 40.2671 99.4753 39.9602C99.1684 39.6532 98.7607 39.4677 98.3277 39.4379H82.022V27.0613M96.9525 42.5812V53.5826H82.022V42.5812H96.9525ZM82.022 56.8241H87.9156V78.0411H82.022V56.8241ZM18.0762 56.8241V78.0411H12.2808V56.8241H18.0762ZM18.0762 42.5812V53.5826H3.24395V42.5812H18.0762ZM3.24395 56.8241H9.03937V78.0411H3.24395V56.8241ZM52.4557 37.0805H47.6426C42.7327 37.0701 38.0194 39.0091 34.5384 42.4717C31.0574 45.9343 29.0933 50.6372 29.0777 55.5471V77.9429H21.2195V28.4365L50.1965 3.68327L78.7805 28.2401V77.9429H70.9224V55.5471C70.9381 50.6526 69.0141 45.9512 65.5716 42.4718C62.1291 38.9925 57.4484 37.0185 52.5539 36.9822C52.5539 37.0804 52.5539 37.0805 52.4557 37.0805ZM91.0589 78.0411V56.8241H96.8543V78.0411H91.0589Z" fill="#1E1E1C"/>
<path id="path1307" d="M50.0999 13.8022C48.3125 13.8022 46.5654 14.3322 45.0793 15.3252C43.5932 16.3181 42.4349 17.7295 41.7509 19.3808C41.0669 21.0321 40.8879 22.8491 41.2366 24.6021C41.5853 26.3551 42.446 27.9653 43.7098 29.2292C44.9737 30.493 46.5839 31.3537 48.3369 31.7024C50.0899 32.051 51.9069 31.8721 53.5581 31.1881C55.2094 30.5041 56.6208 29.3458 57.6138 27.8597C58.6067 26.3736 59.1368 24.6265 59.1368 22.8391C59.1394 21.6517 58.9074 20.4753 58.4541 19.3777C58.0009 18.2802 57.3354 17.283 56.4957 16.4433C55.656 15.6036 54.6588 14.938 53.5612 14.4848C52.4636 14.0316 51.2873 13.7996 50.0999 13.8022ZM50.0999 28.6344C48.9537 28.6344 47.8332 28.2946 46.8801 27.6578C45.9271 27.021 45.1843 26.1159 44.7456 25.0569C44.307 23.998 44.1922 22.8327 44.4159 21.7085C44.6395 20.5843 45.1914 19.5516 46.0019 18.7411C46.8124 17.9306 47.8451 17.3787 48.9693 17.1551C50.0934 16.9314 51.2587 17.0462 52.3177 17.4849C53.3767 17.9235 54.2818 18.6663 54.9186 19.6194C55.5554 20.5724 55.8953 21.6929 55.8953 22.8391C55.8927 24.3754 55.2812 25.8479 54.195 26.9342C53.1087 28.0205 51.6361 28.6318 50.0999 28.6344Z" fill="#1E1E1C"/>
<path id="path1309" d="M43.2203 48.9632C43.0058 48.9642 42.7938 49.0089 42.5971 49.0944C42.4003 49.1799 42.2231 49.3045 42.0761 49.4607C41.929 49.6169 41.8154 49.8014 41.7419 50.0029C41.6684 50.2045 41.6367 50.4189 41.6487 50.633V51.8118C40.5069 51.8773 39.4308 52.3668 38.6313 53.1845C37.8317 54.0022 37.3665 55.0891 37.3267 56.2321V72.9307C37.3241 73.5119 37.4367 74.0877 37.6579 74.6252C37.8791 75.1626 38.2046 75.651 38.6155 76.062C39.0265 76.473 39.5149 76.7985 40.0523 77.0197C40.5898 77.2409 41.1657 77.3535 41.7469 77.3509H58.4455C59.0267 77.3535 59.6027 77.2409 60.1401 77.0197C60.6776 76.7985 61.1659 76.473 61.5769 76.062C61.9879 75.651 62.3133 75.1626 62.5345 74.6252C62.7558 74.0877 62.8683 73.5119 62.8657 72.9307V56.2321C62.8418 55.084 62.3818 53.9882 61.579 53.1671C60.7762 52.3461 59.6909 51.8615 58.5437 51.8118V50.633C58.5556 50.2183 58.4089 49.8146 58.1335 49.5042C57.8581 49.1939 57.4747 49.0001 57.0615 48.9625C56.6482 48.9249 56.2362 49.0463 55.9094 49.302C55.5825 49.5576 55.3654 49.9283 55.3022 50.3384V51.7135H44.6937V50.633C44.7098 50.4389 44.6866 50.2436 44.6257 50.0586C44.5647 49.8736 44.4673 49.7026 44.339 49.556C44.2107 49.4094 44.0543 49.29 43.879 49.2051C43.7037 49.1201 43.5131 49.0713 43.3186 49.0614C43.3186 49.0485 43.316 49.0358 43.3111 49.0239C43.3061 49.012 43.2989 49.0011 43.2898 48.992C43.2807 48.9829 43.2698 48.9756 43.2579 48.9707C43.246 48.9657 43.2332 48.9632 43.2203 48.9632ZM59.6242 63.8937H40.47V59.4735H59.6242V63.8937ZM58.4455 74.0111H41.7469C41.5906 74.0166 41.4349 73.9899 41.2894 73.9326C41.1439 73.8753 41.0118 73.7886 40.9012 73.678C40.7907 73.5675 40.704 73.4354 40.6467 73.2899C40.5894 73.1444 40.5627 72.9886 40.5682 72.8323V67.037H59.7225V72.8323C59.7174 72.994 59.6802 73.1532 59.6131 73.3003C59.5459 73.4475 59.4501 73.5798 59.3312 73.6895C59.2123 73.7993 59.0728 73.8842 58.9207 73.9394C58.7686 73.9946 58.6071 74.019 58.4455 74.0111ZM59.6242 56.2321V56.3303H40.47V56.2321C40.4645 56.0758 40.4912 55.92 40.5485 55.7745C40.6058 55.629 40.6924 55.4969 40.803 55.3864C40.9136 55.2758 41.0457 55.1891 41.1912 55.1318C41.3367 55.0745 41.4924 55.0478 41.6487 55.0533H58.3473C58.5124 55.0277 58.6811 55.0397 58.8409 55.0884C59.0007 55.1371 59.1474 55.2213 59.2702 55.3346C59.3929 55.4479 59.4885 55.5874 59.5498 55.7428C59.6111 55.8982 59.6366 56.0655 59.6242 56.2321Z" fill="#1E1E1C"/>
<path id="path1311" d="M56.7781 69.0056H54.5189C54.1021 69.0056 53.7023 69.1712 53.4076 69.466C53.1128 69.7607 52.9473 70.1604 52.9473 70.5773C52.9473 70.9941 53.1128 71.3938 53.4076 71.6885C53.7023 71.9833 54.1021 72.1489 54.5189 72.1489H56.7781C57.1949 72.1489 57.5947 71.9833 57.8894 71.6885C58.1842 71.3938 58.3498 70.9941 58.3498 70.5773C58.3498 70.1604 58.1842 69.7607 57.8894 69.466C57.5947 69.1712 57.1949 69.0056 56.7781 69.0056Z" fill="#1E1E1C"/>
<path id="path1313" d="M45.6753 69.0069H43.4161C42.9993 69.0069 42.5995 69.1725 42.3048 69.4672C42.0101 69.7619 41.8445 70.1617 41.8445 70.5785C41.8445 70.9953 42.0101 71.3951 42.3048 71.6898C42.5995 71.9845 42.9993 72.1501 43.4161 72.1501H45.6753C45.8824 72.1527 46.088 72.1139 46.2799 72.0358C46.4717 71.9578 46.646 71.8421 46.7925 71.6957C46.939 71.5492 47.0546 71.3749 47.1327 71.1831C47.2107 70.9912 47.2496 70.7856 47.247 70.5785C47.2583 70.3691 47.2254 70.1597 47.1504 69.9639C47.0755 69.768 46.9601 69.5902 46.8118 69.4419C46.6636 69.2936 46.4858 69.1783 46.2899 69.1033C46.0941 69.0283 45.8847 68.9955 45.6753 69.0069Z" fill="#1E1E1C"/>
<path id="path1315" d="M64.3432 91.498H60.9053L60.1194 88.1584H62.1822C62.4022 88.1923 62.6269 88.1806 62.8423 88.1243C63.0578 88.0681 63.2594 87.9683 63.4348 87.8312C63.6101 87.694 63.7556 87.5223 63.8621 87.3268C63.9686 87.1313 64.034 86.9161 64.0541 86.6943C64.0743 86.4726 64.0488 86.2491 63.9793 86.0376C63.9098 85.8261 63.7977 85.6311 63.6499 85.4646C63.5021 85.298 63.3218 85.1634 63.1201 85.0692C62.9183 84.975 62.6994 84.9232 62.4769 84.9168H59.4319L58.5478 80.9878C58.4333 80.5823 58.1653 80.2374 57.8008 80.0261C57.4363 79.8148 57.0038 79.7538 56.595 79.856C56.1862 79.9582 55.8333 80.2155 55.6111 80.5735C55.3889 80.9315 55.3148 81.362 55.4045 81.7736L56.1904 85.015H43.5191L44.3049 81.7736C44.3947 81.362 44.3206 80.9315 44.0983 80.5735C43.8761 80.2155 43.5232 79.9582 43.1144 79.856C42.7057 79.7538 42.2732 79.8148 41.9086 80.0261C41.5441 80.2374 41.2762 80.5823 41.1616 80.9878L40.2776 84.9168H37.1343C36.7058 84.9592 36.3111 85.1683 36.0355 85.4991C35.7598 85.8299 35.6253 86.2559 35.6609 86.685C35.6863 87.0674 35.8496 87.4275 36.1207 87.6985C36.3917 87.9696 36.7519 88.133 37.1343 88.1584H39.4918L38.7059 91.498H35.7591C35.3423 91.498 34.9426 91.6636 34.6478 91.9583C34.3531 92.2531 34.1875 92.6529 34.1875 93.0697C34.1875 93.4865 34.3531 93.8863 34.6478 94.181C34.9426 94.4758 35.3423 94.6413 35.7591 94.6413H38.0184L37.2325 98.0793C37.1797 98.2857 37.1683 98.5006 37.1991 98.7114C37.2299 98.9223 37.3021 99.1249 37.4118 99.3076C37.5214 99.4903 37.6662 99.6495 37.8378 99.7758C38.0093 99.9022 38.2043 99.9933 38.4113 100.044H38.7059C39.0754 100.047 39.4343 99.9206 39.7211 99.6876C40.0079 99.4546 40.2046 99.129 40.2776 98.7668L41.1616 94.6413H58.0567L58.9407 98.7668C59.0251 99.1232 59.225 99.4417 59.5093 99.6727C59.7935 99.9037 60.1462 100.034 60.5124 100.044H60.807C61.014 99.9933 61.209 99.9022 61.3805 99.7758C61.5521 99.6495 61.6969 99.4903 61.8065 99.3076C61.9162 99.1249 61.9884 98.9223 62.0192 98.7114C62.05 98.5006 62.0386 98.2857 61.9858 98.0793L61.1999 94.6413H64.0485C64.2557 94.644 64.4612 94.6051 64.6531 94.5271C64.8449 94.449 65.0193 94.3334 65.1657 94.1869C65.3122 94.0404 65.4279 93.866 65.5059 93.6742C65.5839 93.4823 65.6228 93.2768 65.6201 93.0697C66.013 92.1857 65.3255 91.498 64.3432 91.498ZM42.1439 91.498L42.9297 88.1584H56.8779L57.6638 91.498H42.1439Z" fill="#1E1E1C"/>
</g>
</svg>
