<svg width="16" height="16" viewBox="0 0 16 16" fill="none" xmlns="http://www.w3.org/2000/svg">
<g id="bi:arrow-up">
<path id="Vector" fill-rule="evenodd" clip-rule="evenodd" d="M1.00008 7.99965C1.00008 8.13226 1.05276 8.25944 1.14653 8.35321C1.2403 8.44698 1.36747 8.49965 1.50008 8.49965H13.2931L10.1461 11.6457C10.0522 11.7395 9.99945 11.8669 9.99945 11.9997C9.99945 12.1324 10.0522 12.2598 10.1461 12.3537C10.24 12.4475 10.3673 12.5003 10.5001 12.5003C10.6329 12.5003 10.7602 12.4475 10.8541 12.3537L14.8541 8.35365C14.9006 8.30721 14.9376 8.25203 14.9628 8.19129C14.988 8.13054 15.001 8.06542 15.001 7.99965C15.001 7.93389 14.988 7.86877 14.9628 7.80802C14.9376 7.74728 14.9006 7.6921 14.8541 7.64565L10.8541 3.64565C10.8076 3.59917 10.7524 3.56229 10.6917 3.53713C10.6309 3.51197 10.5658 3.49902 10.5001 3.49902C10.3673 3.49902 10.24 3.55177 10.1461 3.64565C10.0522 3.73954 9.99945 3.86688 9.99945 3.99966C9.99945 4.13243 10.0522 4.25977 10.1461 4.35366L13.2931 7.49965L1.50008 7.49965C1.36747 7.49965 1.2403 7.55233 1.14653 7.6461C1.05276 7.73987 1.00008 7.86705 1.00008 7.99965Z" fill="white"/>
</g>
</svg>
