<svg width="26" height="26" viewBox="0 0 26 26" fill="none" xmlns="http://www.w3.org/2000/svg">
<g id="octicon:arrow-up-24">
<path id="Vector" d="M11.3384 6.06771C11.4847 6.2142 11.5669 6.41276 11.5669 6.6198C11.5669 6.82683 11.4847 7.0254 11.3384 7.17188L6.16134 12.349L21.203 12.349C21.4102 12.349 21.6089 12.4313 21.7554 12.5778C21.9019 12.7243 21.9843 12.923 21.9843 13.1302C21.9843 13.3374 21.9019 13.5361 21.7554 13.6826C21.6089 13.8292 21.4102 13.9115 21.203 13.9115L6.16134 13.9115L11.3384 19.0885C11.4413 19.184 11.5164 19.3055 11.556 19.4401C11.5956 19.5748 11.5982 19.7176 11.5634 19.8536C11.5287 19.9895 11.4579 20.1136 11.3585 20.2127C11.2591 20.3118 11.1349 20.3823 10.9988 20.4167C10.863 20.4515 10.7204 20.4491 10.5858 20.4096C10.4513 20.3702 10.3298 20.2953 10.2343 20.1927L3.72384 13.6823C3.57754 13.5358 3.49536 13.3372 3.49536 13.1302C3.49536 12.9232 3.57754 12.7246 3.72384 12.5781L10.2343 6.06771C10.3807 5.92141 10.5793 5.83923 10.7863 5.83923C10.9934 5.83923 11.1919 5.92141 11.3384 6.06771Z" fill="#309C54"/>
</g>
</svg>
