<svg width="26" height="26" viewBox="0 0 26 26" fill="none" xmlns="http://www.w3.org/2000/svg">
<g id="octicon:arrow-up-24">
<path id="Vector" d="M14.6615 19.9323C14.5152 19.7858 14.433 19.5872 14.433 19.3802C14.433 19.1732 14.5152 18.9746 14.6615 18.8281L19.8385 13.651L4.79687 13.651C4.58968 13.651 4.39096 13.5687 4.24445 13.4222C4.09793 13.2757 4.01562 13.077 4.01562 12.8698C4.01562 12.6626 4.09793 12.4639 4.24445 12.3174C4.39096 12.1708 4.58968 12.0885 4.79687 12.0885L19.8385 12.0885L14.6615 6.91145C14.5586 6.81596 14.4834 6.6945 14.4438 6.55987C14.4042 6.42523 14.4017 6.28241 14.4365 6.14645C14.4712 6.01049 14.542 5.88642 14.6414 5.78731C14.7407 5.68821 14.865 5.61774 15.001 5.58333C15.1368 5.54852 15.2795 5.55095 15.4141 5.59036C15.5486 5.62977 15.6701 5.7047 15.7656 5.80729L22.276 12.3177C22.4223 12.4642 22.5045 12.6628 22.5045 12.8698C22.5045 13.0768 22.4223 13.2754 22.276 13.4219L15.7656 19.9323C15.6191 20.0786 15.4206 20.1608 15.2135 20.1608C15.0065 20.1608 14.8079 20.0786 14.6615 19.9323Z" fill="#309C54"/>
</g>
</svg>
