<svg width="24" height="24" viewBox="0 0 24 24" fill="none" xmlns="http://www.w3.org/2000/svg">
<g id="octicon:arrow-up-24">
<path id="Vector" d="M18.3778 10.4715C18.243 10.6061 18.0604 10.6817 17.8699 10.6817C17.6794 10.6817 17.4967 10.6061 17.362 10.4715L12.5991 5.70856V19.5469C12.5991 19.7375 12.5233 19.9203 12.3885 20.0551C12.2538 20.1899 12.0709 20.2656 11.8803 20.2656C11.6897 20.2656 11.5069 20.1899 11.3721 20.0551C11.2373 19.9203 11.1616 19.7375 11.1616 19.5469V5.70856L6.39865 10.4715C6.3108 10.5661 6.19905 10.6353 6.07519 10.6717C5.95132 10.7081 5.81993 10.7105 5.69484 10.6785C5.56976 10.6465 5.45561 10.5814 5.36444 10.49C5.27326 10.3985 5.20843 10.2842 5.17677 10.1591C5.14475 10.0341 5.14698 9.90285 5.18324 9.77907C5.2195 9.65529 5.28844 9.54356 5.38281 9.45564L11.3724 3.46606C11.5072 3.33146 11.6898 3.25586 11.8803 3.25586C12.0708 3.25586 12.2535 3.33146 12.3882 3.46606L18.3778 9.45564C18.5124 9.59041 18.588 9.77309 18.588 9.96356C18.588 10.154 18.5124 10.3367 18.3778 10.4715Z" fill="#309C54"/>
</g>
</svg>
