<svg width="20" height="21" viewBox="0 0 20 21" fill="none" xmlns="http://www.w3.org/2000/svg">
<g id="Frame 286">
<path id="Vector" d="M19.4615 8.56485L11.1281 1.0162C11.124 1.01279 11.1202 1.00912 11.1167 1.0052C10.8099 0.737312 10.41 0.588867 9.99531 0.588867C9.58059 0.588867 9.18077 0.737312 8.87396 1.0052L8.8625 1.0162L0.538541 8.56485C0.368748 8.71475 0.233212 8.89685 0.140512 9.09964C0.0478117 9.30243 -3.50446e-05 9.52149 1.92581e-08 9.74295V18.9887C1.92581e-08 19.4131 0.175595 19.8201 0.488155 20.1202C0.800716 20.4203 1.22464 20.5889 1.66667 20.5889H6.66667C7.10869 20.5889 7.53262 20.4203 7.84518 20.1202C8.15774 19.8201 8.33333 19.4131 8.33333 18.9887V14.1883H11.6667V18.9887C11.6667 19.4131 11.8423 19.8201 12.1548 20.1202C12.4674 20.4203 12.8913 20.5889 13.3333 20.5889H18.3333C18.7754 20.5889 19.1993 20.4203 19.5118 20.1202C19.8244 19.8201 20 19.4131 20 18.9887V9.74295C20 9.52149 19.9522 9.30243 19.8595 9.09964C19.7668 8.89685 19.6313 8.71475 19.4615 8.56485ZM18.3333 18.9887H13.3333V14.1883C13.3333 13.7639 13.1577 13.3569 12.8452 13.0569C12.5326 12.7568 12.1087 12.5882 11.6667 12.5882H8.33333C7.89131 12.5882 7.46738 12.7568 7.15482 13.0569C6.84226 13.3569 6.66667 13.7639 6.66667 14.1883V18.9887H1.66667V9.74295L1.67813 9.73294L10 2.1873L18.3229 9.73094L18.3344 9.74094L18.3333 18.9887Z" fill="white"/>
</g>
</svg>
