<svg width="21" height="21" viewBox="0 0 21 21" fill="none" xmlns="http://www.w3.org/2000/svg">
<g id="teenyicons:instagram-outline" clip-path="url(#clip0_2393_1032)">
<path id="Vector" d="M15.4 4.90019H16.8M6.30001 0.700195H14.7C16.1852 0.700195 17.6096 1.29019 18.6598 2.3404C19.71 3.3906 20.3 4.81498 20.3 6.30019V14.7002C20.3 16.1854 19.71 17.6098 18.6598 18.66C17.6096 19.7102 16.1852 20.3002 14.7 20.3002H6.30001C4.8148 20.3002 3.39042 19.7102 2.34021 18.66C1.29001 17.6098 0.700012 16.1854 0.700012 14.7002V6.30019C0.700012 4.81498 1.29001 3.3906 2.34021 2.3404C3.39042 1.29019 4.8148 0.700195 6.30001 0.700195ZM10.5 14.7002C9.3861 14.7002 8.31782 14.2577 7.53016 13.47C6.74251 12.6824 6.30001 11.6141 6.30001 10.5002C6.30001 9.38628 6.74251 8.318 7.53016 7.53035C8.31782 6.74269 9.3861 6.30019 10.5 6.30019C11.6139 6.30019 12.6822 6.74269 13.4699 7.53035C14.2575 8.318 14.7 9.38628 14.7 10.5002C14.7 11.6141 14.2575 12.6824 13.4699 13.47C12.6822 14.2577 11.6139 14.7002 10.5 14.7002Z" stroke="#1E1E1C"/>
</g>
<defs>
<clipPath id="clip0_2393_1032">
<rect width="21" height="21" fill="white"/>
</clipPath>
</defs>
</svg>
