<svg width="20" height="26" viewBox="0 0 20 26" fill="none" xmlns="http://www.w3.org/2000/svg">
<g id="Frame 285">
<g id="Group 134">
<path id="Vector" d="M10 14.8749C9.10104 14.8749 8.22222 14.613 7.47473 14.1225C6.72723 13.632 6.14463 12.9347 5.80059 12.119C5.45656 11.3032 5.36654 10.4056 5.54193 9.53964C5.71732 8.67365 6.15023 7.87819 6.78592 7.25385C7.42162 6.62951 8.23154 6.20433 9.11327 6.03207C9.995 5.85982 10.9089 5.94822 11.7395 6.28611C12.5701 6.62401 13.28 7.1962 13.7794 7.93035C14.2789 8.6645 14.5455 9.52763 14.5455 10.4106C14.544 11.5941 14.0647 12.7288 13.2126 13.5657C12.3604 14.4026 11.2051 14.8734 10 14.8749ZM10 7.73201C9.46064 7.73201 8.93335 7.8891 8.48485 8.18343C8.03635 8.47775 7.68679 8.89609 7.48037 9.38553C7.27395 9.87498 7.21994 10.4135 7.32518 10.9331C7.43041 11.4527 7.69016 11.93 8.07157 12.3046C8.45299 12.6792 8.93894 12.9343 9.46798 13.0377C9.99702 13.141 10.5454 13.088 11.0437 12.8853C11.5421 12.6825 11.968 12.3392 12.2677 11.8987C12.5674 11.4582 12.7273 10.9403 12.7273 10.4106C12.7266 9.70039 12.439 9.0195 11.9277 8.51732C11.4164 8.01515 10.7231 7.73271 10 7.73201Z" fill="white"/>
<path id="Vector_2" d="M10 25.5889L2.33092 16.7058C2.22435 16.5724 2.1189 16.4382 2.01455 16.3032C0.704538 14.6083 -0.00316471 12.5382 1.0639e-05 10.4103C1.0639e-05 7.80549 1.05358 5.30737 2.92894 3.4655C4.8043 1.62362 7.34784 0.588867 10 0.588867C12.6522 0.588867 15.1957 1.62362 17.0711 3.4655C18.9464 5.30737 20 7.80549 20 10.4103C20.0032 12.5372 19.2958 14.6064 17.9864 16.3005L17.9854 16.3032C17.9854 16.3032 17.7127 16.6549 17.6718 16.7023L10 25.5889ZM3.46546 15.2273C3.46728 15.2273 3.67819 15.5023 3.72637 15.5612L10 22.8282L16.2818 15.5514C16.3218 15.5023 16.5345 15.2255 16.5354 15.2246C17.6056 13.8399 18.1839 12.1487 18.1818 10.4103C18.1818 8.27909 17.3198 6.23518 15.7854 4.72819C14.251 3.2212 12.17 2.37458 10 2.37458C7.83005 2.37458 5.74897 3.2212 4.21459 4.72819C2.6802 6.23518 1.81819 8.27909 1.81819 10.4103C1.81628 12.1498 2.39435 13.8419 3.46546 15.2273Z" fill="white"/>
</g>
</g>
</svg>
