<svg width="104" height="104" viewBox="0 0 104 104" fill="none" xmlns="http://www.w3.org/2000/svg">
<path d="M100.75 94.25H3.25V100.75H100.75V94.25Z" stroke="#1E1E1C" stroke-width="3" stroke-linejoin="round"/>
<path d="M100.75 32.5H22.75V39H100.75V32.5Z" stroke="#1E1E1C" stroke-width="3" stroke-linejoin="round"/>
<path d="M26 39V45.5H97.5V39" stroke="#1E1E1C" stroke-width="3" stroke-linejoin="round"/>
<path d="M29.25 45.5V94.25" stroke="#1E1E1C" stroke-width="3" stroke-linejoin="round"/>
<path d="M94.25 45.5V94.25" stroke="#1E1E1C" stroke-width="3" stroke-linejoin="round"/>
<path d="M87.75 52H35.75V71.5H87.75V52Z" stroke="#1E1E1C" stroke-width="3" stroke-linejoin="round"/>
<path d="M48.75 58.5H42.25V65H48.75V58.5Z" stroke="#1E1E1C" stroke-width="3" stroke-linejoin="round"/>
<path d="M61.75 58.5H55.25V65H61.75V58.5Z" stroke="#1E1E1C" stroke-width="3" stroke-linejoin="round"/>
<path d="M66.625 58.5H79.625" stroke="#1E1E1C" stroke-width="3" stroke-linejoin="round"/>
<path d="M69.875 65H82.875" stroke="#1E1E1C" stroke-width="3" stroke-linejoin="round"/>
<path d="M35.75 94.25V84.5H87.75V94.25" stroke="#1E1E1C" stroke-width="3" stroke-linejoin="round"/>
<path d="M39 84.5V79.625C39 79.194 39.1712 78.7807 39.476 78.476C39.7807 78.1712 40.194 78 40.625 78H82.875C83.306 78 83.7193 78.1712 84.024 78.476C84.3288 78.7807 84.5 79.194 84.5 79.625V84.5" stroke="#1E1E1C" stroke-width="3" stroke-linejoin="round"/>
<path d="M13 68.25C16.5899 68.25 19.5 65.3399 19.5 61.75C19.5 58.1602 16.5899 55.25 13 55.25C9.41015 55.25 6.5 58.1602 6.5 61.75C6.5 65.3399 9.41015 68.25 13 68.25Z" stroke="#1E1E1C" stroke-width="3" stroke-linejoin="round"/>
<path d="M13 68.25V84.5" stroke="#1E1E1C" stroke-width="3" stroke-linejoin="round"/>
<path d="M16.25 84.5H9.75V94.25H16.25V84.5Z" stroke="#1E1E1C" stroke-width="3" stroke-linejoin="round"/>
<path d="M42.25 11.375C41.6496 11.3836 41.0533 11.4766 40.4788 11.6512C40.1698 10.1948 39.3702 8.88855 38.2137 7.95091C37.0572 7.01328 35.6139 6.50109 34.125 6.5C32.6553 6.50399 31.2319 7.01479 30.095 7.94625C29.3077 6.28128 27.978 4.9332 26.324 4.12303C24.67 3.31286 22.7898 3.08866 20.9917 3.48719C19.1936 3.88572 17.5842 4.88334 16.4275 6.31649C15.2707 7.74963 14.6351 9.53327 14.625 11.375C14.625 11.375 14.625 11.5375 14.625 11.6187C14.0969 11.4643 13.5502 11.3823 13 11.375C11.944 11.3578 10.8997 11.5982 9.95754 12.0753C9.01534 12.5524 8.2036 13.252 7.59255 14.1134C6.9815 14.9748 6.58955 15.9721 6.45062 17.0191C6.31169 18.066 6.42996 19.1311 6.7952 20.122C7.16044 21.113 7.76165 22 8.5468 22.7064C9.33195 23.4127 10.2774 23.9172 11.3013 24.176C12.3252 24.4348 13.3968 24.4402 14.4233 24.1917C15.4498 23.9432 16.4003 23.4484 17.1925 22.75C17.7719 23.7052 18.5877 24.4949 19.5611 25.0429C20.5346 25.591 21.6329 25.8789 22.75 25.8789C23.8671 25.8789 24.9654 25.591 25.9389 25.0429C26.9123 24.4949 27.7281 23.7052 28.3075 22.75C28.943 23.3058 29.6818 23.7308 30.4818 24.0006C31.2818 24.2704 32.1271 24.3798 32.9694 24.3224C33.8116 24.2651 34.6343 24.0421 35.3903 23.6663C36.1463 23.2905 36.8208 22.7693 37.375 22.1325C38.089 22.9562 38.9987 23.587 40.0204 23.9671C41.042 24.3471 42.1429 24.4641 43.2216 24.3073C44.3003 24.1505 45.3223 23.7249 46.1934 23.0697C47.0646 22.4145 47.757 21.5507 48.2069 20.5579C48.6569 19.565 48.8499 18.4749 48.7682 17.3879C48.6866 16.3009 48.3329 15.2519 47.7396 14.3375C47.1464 13.423 46.3327 12.6723 45.3734 12.1547C44.4141 11.637 43.34 11.3689 42.25 11.375Z" stroke="#1E1E1C" stroke-width="3" stroke-linejoin="round"/>
<path d="M61.75 11.375C62.3505 11.3836 62.9467 11.4766 63.5213 11.6512C63.8302 10.1948 64.6298 8.88855 65.7863 7.95091C66.9428 7.01328 68.3861 6.50109 69.875 6.5C71.3447 6.50399 72.7681 7.01479 73.905 7.94625C74.6924 6.28128 76.022 4.9332 77.676 4.12303C79.33 3.31286 81.2102 3.08866 83.0083 3.48719C84.8064 3.88572 86.4158 4.88334 87.5725 6.31649C88.7293 7.74963 89.3649 9.53327 89.375 11.375C89.375 11.375 89.375 11.5375 89.375 11.6187C89.9031 11.4643 90.4498 11.3823 91 11.375C92.056 11.3578 93.1003 11.5982 94.0425 12.0753C94.9847 12.5524 95.7964 13.252 96.4075 14.1134C97.0185 14.9748 97.4105 15.9721 97.5494 17.0191C97.6883 18.066 97.57 19.1311 97.2048 20.122C96.8396 21.113 96.2384 22 95.4532 22.7064C94.6681 23.4127 93.7226 23.9172 92.6987 24.176C91.6748 24.4348 90.6032 24.4402 89.5767 24.1917C88.5502 23.9432 87.5997 23.4484 86.8075 22.75C86.2281 23.7052 85.4123 24.4949 84.4389 25.0429C83.4654 25.591 82.3671 25.8789 81.25 25.8789C80.1329 25.8789 79.0346 25.591 78.0611 25.0429C77.0877 24.4949 76.2719 23.7052 75.6925 22.75C75.057 23.3058 74.3182 23.7308 73.5182 24.0006C72.7183 24.2704 71.8729 24.3798 71.0306 24.3224C70.1884 24.2651 69.3657 24.0421 68.6097 23.6663C67.8537 23.2905 67.1793 22.7693 66.625 22.1325C65.911 22.9562 65.0013 23.587 63.9797 23.9671C62.958 24.3471 61.8572 24.4641 60.7784 24.3073C59.6997 24.1505 58.6778 23.7249 57.8066 23.0697C56.9354 22.4145 56.243 21.5507 55.7931 20.5579C55.3431 19.565 55.1501 18.4749 55.2318 17.3879C55.3134 16.3009 55.6671 15.2519 56.2604 14.3375C56.8536 13.423 57.6673 12.6723 58.6266 12.1547C59.5859 11.637 60.66 11.3689 61.75 11.375Z" stroke="#1E1E1C" stroke-width="3" stroke-linejoin="round"/>
<path d="M42.25 11.8463C42.518 9.5418 43.599 7.40843 45.2987 5.8294C46.9984 4.25037 49.2054 3.32917 51.5233 3.23129C53.8413 3.1334 56.1181 3.86525 57.9449 5.29536C59.7717 6.72546 61.0287 8.7601 61.49 11.0338" stroke="#1E1E1C" stroke-width="3" stroke-linejoin="round"/>
<path d="M56.4688 21.6612C55.0869 22.3738 53.5547 22.7456 52 22.7456C50.4453 22.7456 48.9131 22.3738 47.5312 21.6612" stroke="#1E1E1C" stroke-width="3" stroke-linejoin="round"/>
</svg>
