<svg width="30" height="30" viewBox="0 0 30 30" fill="none" xmlns="http://www.w3.org/2000/svg">
<g id="ph:plus-light">
<path id="Vector" d="M26.0156 15C26.0156 15.1865 25.9415 15.3653 25.8097 15.4972C25.6778 15.629 25.499 15.7031 25.3125 15.7031H15.7031V25.3125C15.7031 25.499 15.629 25.6778 15.4972 25.8097C15.3653 25.9415 15.1865 26.0156 15 26.0156C14.8135 26.0156 14.6347 25.9415 14.5028 25.8097C14.371 25.6778 14.2969 25.499 14.2969 25.3125V15.7031H4.6875C4.50102 15.7031 4.32218 15.629 4.19032 15.4972C4.05845 15.3653 3.98438 15.1865 3.98438 15C3.98438 14.8135 4.05845 14.6347 4.19032 14.5028C4.32218 14.3709 4.50102 14.2969 4.6875 14.2969H14.2969V4.6875C14.2969 4.50102 14.371 4.32218 14.5028 4.19032C14.6347 4.05845 14.8135 3.98438 15 3.98438C15.1865 3.98438 15.3653 4.05845 15.4972 4.19032C15.629 4.32218 15.7031 4.50102 15.7031 4.6875V14.2969H25.3125C25.499 14.2969 25.6778 14.3709 25.8097 14.5028C25.9415 14.6347 26.0156 14.8135 26.0156 15Z" fill="#C9C9C9" fill-opacity="0.52"/>
</g>
</svg>
