<svg width="100" height="100" viewBox="0 0 100 100" fill="none" xmlns="http://www.w3.org/2000/svg">
<path d="M81.4951 26.4603L51.2545 0.4416C50.9662 0.158567 50.5784 0 50.1745 0C49.7705 0 49.3827 0.158567 49.0944 0.4416L19.2465 26.0676C18.9164 26.151 18.6226 26.3401 18.4099 26.606C18.1971 26.8718 18.0772 27.1999 18.0683 27.5403V39.4206H1.57342C1.35901 39.4216 1.14705 39.4662 0.950424 39.5517C0.753796 39.6372 0.576612 39.7618 0.429661 39.918C0.28271 40.0741 0.169037 40.2585 0.0955995 40.4599C0.022162 40.6614 -0.00951469 40.8757 0.00247345 41.0898V79.5778C0.00615563 80.0126 0.167395 80.4313 0.456268 80.7563C0.745142 81.0813 1.14206 81.2905 1.57342 81.3452H30.6359C31.0639 81.3273 31.4679 81.1426 31.7614 80.8306C32.055 80.5187 32.2148 80.1042 32.2068 79.676V55.7192C32.2274 51.6633 33.8478 47.7794 36.7158 44.9114C39.5837 42.0434 43.4676 40.423 47.5235 40.4024H52.3345C56.3904 40.423 60.2743 42.0434 63.1422 44.9114C66.0102 47.7794 67.6305 51.6633 67.6512 55.7192V79.676C67.6573 80.1001 67.822 80.5066 68.1127 80.8155C68.4034 81.1244 68.7992 81.3133 69.2221 81.3452H98.3828C98.5972 81.3442 98.8091 81.2995 99.0058 81.214C99.2024 81.1285 99.3796 81.0039 99.5265 80.8478C99.6735 80.6916 99.7871 80.5072 99.8606 80.3058C99.934 80.1043 99.9657 79.89 99.9537 79.676V41.0898C99.9239 40.6569 99.7385 40.2494 99.4317 39.9426C99.1249 39.6358 98.7174 39.4504 98.2846 39.4206H81.986V27.0494M96.91 42.5625V53.5591H81.986V42.5625H96.91ZM81.986 56.7992H87.8771V78.0069H81.986V56.7992ZM18.0683 56.7992V78.0069H12.2755V56.7992H18.0683ZM18.0683 42.5625V53.5591H3.24253V42.5625H18.0683ZM3.24253 56.7992H9.03541V78.0069H3.24253V56.7992ZM52.4327 37.0642H47.6217C42.7139 37.0538 38.0028 38.992 34.5232 42.4531C31.0437 45.9142 29.0805 50.615 29.0649 55.5227V77.9087H21.2102V28.424L50.1745 3.68166L78.746 28.2277V77.9087H70.8913V55.5227C70.907 50.6303 68.9839 45.931 65.5428 42.4532C62.1018 38.9754 57.4232 37.0023 52.5309 36.966C52.5309 37.0641 52.5309 37.0642 52.4327 37.0642ZM91.019 78.0069V56.7992H96.8118V78.0069H91.019Z" fill="#1E1E1C"/>
<path d="M50.0778 13.7961C48.2913 13.7961 46.5449 14.3259 45.0594 15.3185C43.574 16.311 42.4162 17.7218 41.7325 19.3723C41.0488 21.0229 40.87 22.8391 41.2185 24.5913C41.567 26.3436 42.4273 27.9531 43.6906 29.2164C44.9539 30.4796 46.5634 31.3399 48.3156 31.6885C50.0678 32.037 51.884 31.8581 53.5346 31.1744C55.1851 30.4907 56.5959 29.333 57.5884 27.8475C58.581 26.3621 59.1108 24.6157 59.1108 22.8291C59.1134 21.6422 58.8815 20.4664 58.4285 19.3693C57.9754 18.2722 57.3102 17.2754 56.4709 16.4361C55.6316 15.5968 54.6347 14.9315 53.5377 14.4785C52.4406 14.0254 51.2648 13.7935 50.0778 13.7961ZM50.0778 28.6219C48.9321 28.6219 47.8121 28.2822 46.8595 27.6457C45.9069 27.0092 45.1644 26.1045 44.7259 25.0459C44.2875 23.9874 44.1728 22.8227 44.3963 21.699C44.6198 20.5753 45.1715 19.543 45.9817 18.7329C46.7918 17.9228 47.824 17.3711 48.9477 17.1475C50.0714 16.924 51.2362 17.0387 52.2947 17.4772C53.3532 17.9156 54.2579 18.6581 54.8944 19.6108C55.531 20.5634 55.8707 21.6834 55.8707 22.8291C55.8681 24.3647 55.2569 25.8366 54.1711 26.9224C53.0853 28.0082 51.6134 28.6193 50.0778 28.6219Z" fill="#1E1E1C"/>
<path d="M43.2011 48.9418C42.9867 48.9428 42.7747 48.9874 42.5781 49.0729C42.3815 49.1584 42.2043 49.2829 42.0573 49.439C41.9104 49.5952 41.7968 49.7796 41.7233 49.981C41.6499 50.1825 41.6182 50.3968 41.6302 50.6109V51.7891C40.4889 51.8545 39.4132 52.3439 38.614 53.1612C37.8149 53.9786 37.3498 55.065 37.3101 56.2074V72.8987C37.3075 73.4796 37.42 74.0552 37.6411 74.5925C37.8622 75.1297 38.1876 75.6179 38.5983 76.0287C39.0091 76.4395 39.4973 76.7648 40.0345 76.9859C40.5717 77.2071 41.1474 77.3196 41.7283 77.317H58.4196C59.0006 77.3196 59.5763 77.2071 60.1135 76.9859C60.6507 76.7648 61.1388 76.4395 61.5496 76.0287C61.9604 75.6179 62.2857 75.1297 62.5069 74.5925C62.728 74.0552 62.8405 73.4796 62.8379 72.8987V56.2074C62.814 55.0599 62.3541 53.9645 61.5517 53.1438C60.7493 52.3232 59.6645 51.8388 58.5178 51.7891V50.6109C58.5297 50.1963 58.383 49.7928 58.1077 49.4826C57.8324 49.1723 57.4492 48.9786 57.0362 48.9411C56.6231 48.9035 56.2113 49.0248 55.8846 49.2804C55.5579 49.5359 55.3408 49.9064 55.2777 50.3164V51.6909H44.6739V50.6109C44.6899 50.4168 44.6668 50.2216 44.6059 50.0366C44.5449 49.8517 44.4475 49.6809 44.3193 49.5343C44.1911 49.3878 44.0347 49.2684 43.8595 49.1835C43.6842 49.0986 43.4938 49.0498 43.2993 49.0399C43.2993 49.027 43.2967 49.0143 43.2918 49.0024C43.2869 48.9905 43.2797 48.9797 43.2705 48.9705C43.2614 48.9614 43.2506 48.9541 43.2387 48.9492C43.2268 48.9443 43.214 48.9418 43.2011 48.9418ZM59.5978 63.8657H40.452V59.4474H59.5978V63.8657ZM58.4196 73.9787H41.7283C41.5721 73.9842 41.4165 73.9575 41.271 73.9002C41.1256 73.8429 40.9935 73.7563 40.883 73.6457C40.7725 73.5352 40.6859 73.4032 40.6286 73.2578C40.5714 73.1123 40.5446 72.9566 40.5501 72.8004V67.0076H59.696V72.8004C59.691 72.962 59.6538 73.1211 59.5867 73.2682C59.5195 73.4153 59.4237 73.5476 59.3049 73.6572C59.1861 73.7669 59.0466 73.8518 58.8946 73.907C58.7426 73.9622 58.5811 73.9866 58.4196 73.9787ZM59.5978 56.2074V56.3056H40.452V56.2074C40.4465 56.0512 40.4732 55.8955 40.5305 55.7501C40.5877 55.6046 40.6743 55.4726 40.7848 55.3621C40.8954 55.2516 41.0275 55.1649 41.1729 55.1076C41.3183 55.0504 41.474 55.0236 41.6302 55.0291H58.3214C58.4864 55.0036 58.6551 55.0156 58.8148 55.0642C58.9745 55.1129 59.1212 55.1971 59.2439 55.3103C59.3666 55.4236 59.4622 55.5631 59.5234 55.7184C59.5847 55.8737 59.6102 56.0409 59.5978 56.2074Z" fill="#1E1E1C"/>
<path d="M56.7532 68.9754H54.495C54.0784 68.9754 53.6788 69.1409 53.3842 69.4355C53.0896 69.7301 52.9241 70.1296 52.9241 70.5463C52.9241 70.9629 53.0896 71.3625 53.3842 71.6571C53.6788 71.9517 54.0784 72.1172 54.495 72.1172H56.7532C57.1699 72.1172 57.5695 71.9517 57.8641 71.6571C58.1587 71.3625 58.3242 70.9629 58.3242 70.5463C58.3242 70.1296 58.1587 69.7301 57.8641 69.4355C57.5695 69.1409 57.1699 68.9754 56.7532 68.9754Z" fill="#1E1E1C"/>
<path d="M45.655 68.9766H43.3968C42.9802 68.9766 42.5806 69.1421 42.286 69.4367C41.9914 69.7313 41.8259 70.1309 41.8259 70.5475C41.8259 70.9642 41.9914 71.3637 42.286 71.6583C42.5806 71.9529 42.9802 72.1185 43.3968 72.1185H45.655C45.8621 72.1211 46.0675 72.0822 46.2593 72.0042C46.4511 71.9262 46.6253 71.8106 46.7717 71.6642C46.9181 71.5178 47.0337 71.3436 47.1118 71.1518C47.1898 70.96 47.2286 70.7546 47.226 70.5475C47.2373 70.3383 47.2044 70.1289 47.1295 69.9332C47.0546 69.7374 46.9392 69.5596 46.791 69.4114C46.6428 69.2632 46.4651 69.1479 46.2694 69.073C46.0736 68.998 45.8643 68.9653 45.655 68.9766Z" fill="#1E1E1C"/>
<path d="M64.3146 91.4579H60.8782L60.0927 88.1197H62.1546C62.3745 88.1536 62.5991 88.1419 62.8144 88.0857C63.0297 88.0295 63.2313 87.9298 63.4066 87.7927C63.5819 87.6556 63.7273 87.484 63.8337 87.2886C63.9402 87.0931 64.0055 86.878 64.0257 86.6563C64.0458 86.4347 64.0204 86.2113 63.9509 85.9999C63.8814 85.7885 63.7693 85.5936 63.6216 85.4271C63.4739 85.2607 63.2937 85.1261 63.092 85.032C62.8904 84.9378 62.6716 84.886 62.4491 84.8796H59.4054L58.5218 80.9523C58.4073 80.547 58.1395 80.2022 57.7751 79.991C57.4107 79.7799 56.9784 79.7188 56.5698 79.821C56.1612 79.9231 55.8085 80.1804 55.5864 80.5382C55.3642 80.896 55.2902 81.3263 55.3799 81.7378L56.1654 84.9778H43.4996L44.2851 81.7378C44.3748 81.3263 44.3008 80.896 44.0786 80.5382C43.8565 80.1804 43.5038 79.9231 43.0952 79.821C42.6866 79.7188 42.2543 79.7799 41.8899 79.991C41.5255 80.2022 41.2577 80.547 41.1432 80.9523L40.2596 84.8796H37.1177C36.6894 84.922 36.2949 85.131 36.0193 85.4616C35.7438 85.7923 35.6093 86.2181 35.6449 86.647C35.6702 87.0293 35.8336 87.3892 36.1045 87.6601C36.3754 87.931 36.7354 88.0944 37.1177 88.1197H39.4741L38.6886 91.4579H35.7431C35.3265 91.4579 34.9269 91.6234 34.6323 91.918C34.3377 92.2126 34.1721 92.6123 34.1721 93.0289C34.1721 93.4456 34.3377 93.8451 34.6323 94.1397C34.9269 94.4343 35.3265 94.5999 35.7431 94.5999H38.0013L37.2159 98.0363C37.163 98.2426 37.1517 98.4574 37.1824 98.6682C37.2132 98.8789 37.2854 99.0814 37.395 99.2641C37.5046 99.4467 37.6493 99.6058 37.8208 99.7321C37.9923 99.8584 38.1872 99.9495 38.3941 100H38.6886C39.0579 100.003 39.4167 99.8768 39.7033 99.6439C39.99 99.411 40.1866 99.0856 40.2596 98.7235L41.1432 94.5999H58.0309L58.9145 98.7235C58.9989 99.0798 59.1987 99.3982 59.4828 99.629C59.767 99.8599 60.1195 99.9903 60.4855 100H60.78C60.9869 99.9495 61.1818 99.8584 61.3533 99.7321C61.5247 99.6058 61.6695 99.4467 61.7791 99.2641C61.8886 99.0814 61.9609 98.8789 61.9917 98.6682C62.0224 98.4574 62.011 98.2426 61.9582 98.0363L61.1727 94.5999H64.0201C64.2271 94.6025 64.4326 94.5636 64.6244 94.4856C64.8161 94.4076 64.9904 94.292 65.1368 94.1456C65.2832 93.9992 65.3988 93.8249 65.4768 93.6331C65.5548 93.4413 65.5936 93.236 65.591 93.0289C65.9837 92.1453 65.2965 91.4579 64.3146 91.4579ZM42.1251 91.4579L42.9105 88.1197H56.8526L57.6381 91.4579H42.1251Z" fill="#1E1E1C"/>
</svg>
