<svg width="100" height="101" viewBox="0 0 100 101" fill="none" xmlns="http://www.w3.org/2000/svg">
<path d="M81.5309 26.4719L51.277 0.441794C50.9886 0.158637 50.6006 0 50.1965 0C49.7923 0 49.4043 0.158637 49.116 0.441794L19.255 26.079C18.9247 26.1625 18.6307 26.3516 18.4179 26.6176C18.2051 26.8836 18.0851 27.2119 18.0762 27.5524V39.4379H1.57411C1.35961 39.4389 1.14756 39.4835 0.950841 39.569C0.754126 39.6546 0.576865 39.7793 0.429849 39.9355C0.282834 40.0917 0.169111 40.2761 0.0956415 40.4777C0.0221717 40.6792 -0.00951887 40.8936 0.00247453 41.1078V79.6127C0.00615833 80.0477 0.167468 80.4666 0.456469 80.7918C0.745469 81.1169 1.14256 81.3262 1.57411 81.3809H30.6493C31.0775 81.363 31.4817 81.1782 31.7754 80.8661C32.0691 80.554 32.229 80.1394 32.2209 79.7109V55.7436C32.2416 51.686 33.8626 47.8003 36.7319 44.9311C39.6011 42.0619 43.4867 40.4408 47.5443 40.4201H52.3574C56.4151 40.4408 60.3007 42.0619 63.1699 44.9311C66.0392 47.8003 67.6602 51.686 67.6809 55.7436V79.7109C67.687 80.1352 67.8517 80.542 68.1426 80.851C68.4334 81.16 68.8293 81.349 69.2525 81.3809H98.4259C98.6404 81.3799 98.8525 81.3352 99.0492 81.2497C99.2459 81.1641 99.4232 81.0394 99.5702 80.8832C99.7172 80.727 99.8309 80.5426 99.9044 80.341C99.9778 80.1395 100.01 79.9251 99.9975 79.7109V41.1078C99.9677 40.6747 99.7822 40.2671 99.4753 39.9602C99.1684 39.6532 98.7607 39.4677 98.3277 39.4379H82.022V27.0613M96.9525 42.5812V53.5826H82.022V42.5812H96.9525ZM82.022 56.8241H87.9156V78.0411H82.022V56.8241ZM18.0762 56.8241V78.0411H12.2808V56.8241H18.0762ZM18.0762 42.5812V53.5826H3.24395V42.5812H18.0762ZM3.24395 56.8241H9.03937V78.0411H3.24395V56.8241ZM52.4557 37.0805H47.6426C42.7327 37.0701 38.0194 39.0091 34.5384 42.4717C31.0574 45.9343 29.0933 50.6372 29.0777 55.5471V77.9429H21.2195V28.4365L50.1965 3.68327L78.7805 28.2401V77.9429H70.9224V55.5471C70.9381 50.6526 69.0141 45.9512 65.5716 42.4718C62.1291 38.9925 57.4484 37.0185 52.5539 36.9822C52.5539 37.0804 52.5539 37.0805 52.4557 37.0805ZM91.0589 78.0411V56.8241H96.8543V78.0411H91.0589Z" fill="#1E1E1C"/>
<path d="M50.0998 13.8022C48.3125 13.8022 46.5653 14.3322 45.0792 15.3252C43.5931 16.3181 42.4348 17.7295 41.7508 19.3808C41.0668 21.0321 40.8879 22.8491 41.2366 24.6021C41.5853 26.3551 42.446 27.9653 43.7098 29.2292C44.9736 30.493 46.5838 31.3537 48.3368 31.7024C50.0898 32.051 51.9068 31.8721 53.5581 31.1881C55.2094 30.5041 56.6207 29.3458 57.6137 27.8597C58.6067 26.3736 59.1367 24.6265 59.1367 22.8391C59.1393 21.6517 58.9073 20.4753 58.4541 19.3778C58.0009 18.2802 57.3353 17.283 56.4956 16.4433C55.656 15.6036 54.6587 14.938 53.5611 14.4848C52.4636 14.0316 51.2873 13.7996 50.0998 13.8022ZM50.0998 28.6344C48.9536 28.6344 47.8331 28.2946 46.8801 27.6578C45.927 27.021 45.1842 26.1159 44.7456 25.0569C44.3069 23.998 44.1922 22.8327 44.4158 21.7085C44.6394 20.5843 45.1913 19.5516 46.0018 18.7411C46.8123 17.9306 47.845 17.3787 48.9692 17.1551C50.0934 16.9314 51.2587 17.0462 52.3176 17.4849C53.3766 17.9235 54.2817 18.6663 54.9185 19.6194C55.5553 20.5724 55.8952 21.6929 55.8952 22.8391C55.8926 24.3754 55.2812 25.8479 54.1949 26.9342C53.1086 28.0205 51.6361 28.6318 50.0998 28.6344Z" fill="#1E1E1C"/>
<path d="M43.2202 48.9632C43.0057 48.9642 42.7937 49.0089 42.597 49.0944C42.4002 49.1799 42.223 49.3045 42.076 49.4607C41.929 49.6169 41.8153 49.8014 41.7418 50.0029C41.6683 50.2045 41.6366 50.4189 41.6486 50.633V51.8118C40.5068 51.8773 39.4307 52.3668 38.6312 53.1845C37.8316 54.0022 37.3664 55.0891 37.3266 56.2321V72.9307C37.324 73.5119 37.4366 74.0877 37.6578 74.6252C37.879 75.1626 38.2045 75.651 38.6155 76.062C39.0264 76.473 39.5148 76.7985 40.0522 77.0197C40.5897 77.2409 41.1656 77.3535 41.7468 77.3509H58.4454C59.0266 77.3535 59.6026 77.2409 60.14 77.0197C60.6775 76.7985 61.1658 76.473 61.5768 76.062C61.9878 75.651 62.3132 75.1626 62.5345 74.6252C62.7557 74.0877 62.8682 73.5119 62.8656 72.9307V56.2321C62.8417 55.084 62.3817 53.9882 61.5789 53.1671C60.7761 52.3461 59.6909 51.8615 58.5437 51.8118V50.633C58.5555 50.2183 58.4088 49.8146 58.1334 49.5042C57.858 49.1939 57.4746 49.0001 57.0614 48.9625C56.6481 48.9249 56.2361 49.0463 55.9093 49.302C55.5824 49.5576 55.3653 49.9283 55.3021 50.3384V51.7135H44.6936V50.633C44.7097 50.4389 44.6865 50.2436 44.6256 50.0586C44.5647 49.8736 44.4672 49.7026 44.3389 49.556C44.2106 49.4094 44.0542 49.29 43.8789 49.2051C43.7036 49.1201 43.513 49.0713 43.3185 49.0614C43.3185 49.0485 43.3159 49.0358 43.311 49.0239C43.306 49.012 43.2988 49.0011 43.2897 48.992C43.2806 48.9829 43.2697 48.9756 43.2578 48.9707C43.2459 48.9657 43.2331 48.9632 43.2202 48.9632ZM59.6242 63.8937H40.4699V59.4735H59.6242V63.8937ZM58.4454 74.0111H41.7468C41.5906 74.0166 41.4348 73.9899 41.2893 73.9326C41.1438 73.8753 41.0117 73.7886 40.9011 73.678C40.7906 73.5675 40.7039 73.4354 40.6466 73.2899C40.5893 73.1444 40.5626 72.9886 40.5681 72.8323V67.037H59.7224V72.8323C59.7173 72.994 59.6802 73.1532 59.613 73.3003C59.5458 73.4475 59.45 73.5798 59.3311 73.6895C59.2122 73.7993 59.0727 73.8842 58.9206 73.9394C58.7685 73.9946 58.607 74.019 58.4454 74.0111ZM59.6242 56.2321V56.3303H40.4699V56.2321C40.4644 56.0758 40.4911 55.92 40.5484 55.7745C40.6057 55.629 40.6923 55.4969 40.8029 55.3864C40.9135 55.2758 41.0456 55.1891 41.1911 55.1318C41.3366 55.0745 41.4923 55.0478 41.6486 55.0533H58.3472C58.5123 55.0277 58.681 55.0397 58.8408 55.0884C59.0006 55.1371 59.1473 55.2213 59.2701 55.3346C59.3928 55.4479 59.4884 55.5874 59.5497 55.7428C59.611 55.8982 59.6365 56.0655 59.6242 56.2321Z" fill="#1E1E1C"/>
<path d="M56.7781 69.0056H54.5189C54.1021 69.0056 53.7023 69.1712 53.4076 69.466C53.1128 69.7607 52.9473 70.1604 52.9473 70.5773C52.9473 70.9941 53.1128 71.3938 53.4076 71.6885C53.7023 71.9833 54.1021 72.1489 54.5189 72.1489H56.7781C57.1949 72.1489 57.5947 71.9833 57.8894 71.6885C58.1842 71.3938 58.3498 70.9941 58.3498 70.5773C58.3498 70.1604 58.1842 69.7607 57.8894 69.466C57.5947 69.1712 57.1949 69.0056 56.7781 69.0056Z" fill="#1E1E1C"/>
<path d="M45.6754 69.0069H43.4161C42.9993 69.0069 42.5996 69.1725 42.3048 69.4672C42.0101 69.7619 41.8445 70.1617 41.8445 70.5785C41.8445 70.9953 42.0101 71.395 42.3048 71.6898C42.5996 71.9845 42.9993 72.1501 43.4161 72.1501H45.6754C45.8825 72.1527 46.088 72.1139 46.2799 72.0358C46.4718 71.9578 46.6461 71.8421 46.7925 71.6957C46.939 71.5492 47.0547 71.3749 47.1327 71.1831C47.2108 70.9912 47.2496 70.7856 47.247 70.5785C47.2583 70.3691 47.2254 70.1597 47.1505 69.9639C47.0755 69.768 46.9601 69.5902 46.8119 69.4419C46.6636 69.2936 46.4858 69.1783 46.29 69.1033C46.0941 69.0283 45.8847 68.9955 45.6754 69.0069Z" fill="#1E1E1C"/>
<path d="M64.3432 91.498H60.9053L60.1195 88.1584H62.1822C62.4023 88.1922 62.6269 88.1806 62.8424 88.1243C63.0578 88.0681 63.2594 87.9683 63.4348 87.8312C63.6102 87.694 63.7556 87.5223 63.8621 87.3268C63.9687 87.1313 64.034 86.9161 64.0542 86.6943C64.0743 86.4726 64.0489 86.2491 63.9793 86.0376C63.9098 85.8261 63.7977 85.6311 63.6499 85.4646C63.5022 85.298 63.3218 85.1634 63.1201 85.0692C62.9184 84.975 62.6995 84.9232 62.4769 84.9168H59.4319L58.5478 80.9878C58.4333 80.5823 58.1654 80.2374 57.8008 80.0261C57.4363 79.8148 57.0038 79.7538 56.595 79.856C56.1863 79.9582 55.8334 80.2155 55.6111 80.5735C55.3889 80.9315 55.3148 81.362 55.4046 81.7736L56.1904 85.015H43.5191L44.3049 81.7736C44.3947 81.362 44.3206 80.9315 44.0984 80.5735C43.8761 80.2155 43.5232 79.9582 43.1145 79.856C42.7057 79.7538 42.2732 79.8148 41.9087 80.0261C41.5441 80.2374 41.2762 80.5823 41.1617 80.9878L40.2776 84.9168H37.1343C36.7058 84.9592 36.3112 85.1683 36.0355 85.4991C35.7599 85.8299 35.6253 86.2559 35.6609 86.685C35.6863 87.0674 35.8497 87.4275 36.1207 87.6985C36.3917 87.9696 36.7519 88.133 37.1343 88.1584H39.4918L38.706 91.498H35.7592C35.3423 91.498 34.9426 91.6636 34.6478 91.9583C34.3531 92.2531 34.1875 92.6529 34.1875 93.0697C34.1875 93.4865 34.3531 93.8863 34.6478 94.181C34.9426 94.4758 35.3423 94.6413 35.7592 94.6413H38.0184L37.2326 98.0793C37.1797 98.2857 37.1684 98.5006 37.1991 98.7114C37.2299 98.9223 37.3022 99.1249 37.4118 99.3076C37.5214 99.4903 37.6662 99.6495 37.8378 99.7758C38.0094 99.9022 38.2043 99.9933 38.4113 100.044H38.706C39.0755 100.047 39.4344 99.9206 39.7211 99.6876C40.0079 99.4546 40.2046 99.129 40.2776 98.7668L41.1617 94.6413H58.0567L58.9407 98.7668C59.0251 99.1232 59.225 99.4417 59.5093 99.6727C59.7936 99.9037 60.1462 100.034 60.5124 100.044H60.8071C61.0141 99.9933 61.209 99.9022 61.3806 99.7758C61.5521 99.6495 61.6969 99.4903 61.8066 99.3076C61.9162 99.1249 61.9885 98.9223 62.0192 98.7114C62.05 98.5006 62.0386 98.2857 61.9858 98.0793L61.2 94.6413H64.0486C64.2557 94.644 64.4612 94.6051 64.6531 94.5271C64.845 94.449 65.0193 94.3334 65.1658 94.1869C65.3122 94.0404 65.4279 93.866 65.5059 93.6742C65.584 93.4823 65.6228 93.2768 65.6202 93.0697C66.0131 92.1857 65.3255 91.498 64.3432 91.498ZM42.1439 91.498L42.9298 88.1584H56.878L57.6638 91.498H42.1439Z" fill="#1E1E1C"/>
</svg>
