<svg width="31" height="30" viewBox="0 0 31 30" fill="none" xmlns="http://www.w3.org/2000/svg">
<g id="circum:facebook">
<path id="Vector" d="M24.275 6.21854C22.5387 4.48304 20.3268 3.30137 17.9189 2.82295C15.5111 2.34454 13.0154 2.59086 10.7476 3.53079C8.47972 4.47071 6.5415 6.06202 5.17802 8.10348C3.81454 10.1449 3.08703 12.5449 3.08749 14.9998C3.08749 18.2924 4.39504 21.4502 6.72265 23.779C9.05027 26.1077 12.2074 27.4169 15.5 27.4185C17.1294 27.4192 18.7431 27.1007 20.25 26.481C21.7521 25.847 23.1185 24.9304 24.275 23.781C25.4283 22.6279 26.3431 21.259 26.9673 19.7523C27.5915 18.2456 27.9128 16.6307 27.9128 14.9998C27.9128 13.3689 27.5915 11.754 26.9673 10.2473C26.3431 8.74063 25.4283 7.37164 24.275 6.21854ZM23.4 22.8935C21.6126 24.6886 19.2672 25.8216 16.75 26.106V17.906H19.1C19.4315 17.906 19.7495 17.7743 19.9839 17.5399C20.2183 17.3055 20.35 16.9876 20.35 16.656C20.35 16.3245 20.2183 16.0066 19.9839 15.7722C19.7495 15.5377 19.4315 15.406 19.1 15.406H16.75V11.981C16.75 11.6495 16.8817 11.3316 17.1161 11.0972C17.3505 10.8627 17.6685 10.731 18 10.731H19.5C19.8315 10.731 20.1495 10.5993 20.3839 10.3649C20.6183 10.1305 20.75 9.81256 20.75 9.48104C20.75 9.14952 20.6183 8.83158 20.3839 8.59716C20.1495 8.36274 19.8315 8.23104 19.5 8.23104H17.375C16.5462 8.23104 15.7513 8.56028 15.1653 9.14633C14.5792 9.73238 14.25 10.5272 14.25 11.356V15.406H11.9125C11.581 15.406 11.263 15.5377 11.0286 15.7722C10.7942 16.0066 10.6625 16.3245 10.6625 16.656C10.6625 16.9876 10.7942 17.3055 11.0286 17.5399C11.263 17.7743 11.581 17.906 11.9125 17.906H14.25V26.106C11.9286 25.8412 9.74909 24.8537 8.01931 23.2831C6.28952 21.7125 5.09689 19.6382 4.60987 17.353C4.12285 15.0679 4.36607 12.6875 5.30516 10.5481C6.24425 8.4087 7.83175 6.61839 9.84343 5.43007C11.8551 4.24174 14.1893 3.71546 16.5163 3.92556C18.8433 4.13567 21.0454 5.07153 22.8117 6.60097C24.578 8.13041 25.8192 10.1761 26.3598 12.4491C26.9005 14.7222 26.7134 17.1076 25.825 19.2685C25.2591 20.6226 24.4355 21.8537 23.4 22.8935Z" fill="white"/>
</g>
</svg>
