<svg width="28" height="28" viewBox="0 0 28 28" fill="none" xmlns="http://www.w3.org/2000/svg">
<g id="teenyicons:instagram-outline" clip-path="url(#clip0_1715_4403)">
<path id="Vector" d="M20.3 6.7999H22.1M8.59999 1.3999H19.4C21.3095 1.3999 23.1409 2.15847 24.4912 3.50873C25.8414 4.85899 26.6 6.69034 26.6 8.5999V19.3999C26.6 21.3095 25.8414 23.1408 24.4912 24.4911C23.1409 25.8413 21.3095 26.5999 19.4 26.5999H8.59999C6.69043 26.5999 4.85909 25.8413 3.50882 24.4911C2.15856 23.1408 1.39999 21.3095 1.39999 19.3999V8.5999C1.39999 6.69034 2.15856 4.85899 3.50882 3.50873C4.85909 2.15847 6.69043 1.3999 8.59999 1.3999ZM14 19.3999C12.5678 19.3999 11.1943 18.831 10.1816 17.8183C9.16892 16.8056 8.59999 15.4321 8.59999 13.9999C8.59999 12.5677 9.16892 11.1942 10.1816 10.1815C11.1943 9.16883 12.5678 8.5999 14 8.5999C15.4322 8.5999 16.8057 9.16883 17.8184 10.1815C18.8311 11.1942 19.4 12.5677 19.4 13.9999C19.4 15.4321 18.8311 16.8056 17.8184 17.8183C16.8057 18.831 15.4322 19.3999 14 19.3999Z" stroke="white"/>
</g>
<defs>
<clipPath id="clip0_1715_4403">
<rect width="27" height="27" fill="white" transform="translate(0.5 0.5)"/>
</clipPath>
</defs>
</svg>
