<svg width="21" height="21" viewBox="0 0 21 21" fill="none" xmlns="http://www.w3.org/2000/svg">
<circle cx="10.5" cy="10.5" r="10" stroke="#1E1E1C"/>
<g clip-path="url(#clip0_2397_1232)">
<path fill-rule="evenodd" clip-rule="evenodd" d="M16.1135 6.6864C16.1415 6.51656 16.1234 6.34232 16.0612 6.18184C15.9989 6.02136 15.8948 5.88051 15.7596 5.77396C15.6244 5.6674 15.4631 5.59906 15.2926 5.57603C15.122 5.55301 14.9483 5.57615 14.7897 5.64305L3.81724 10.263C3.05237 10.5852 3.01323 11.6914 3.81724 12.0251C4.61337 12.3571 5.4211 12.6606 6.23889 12.9349C6.98836 13.1826 7.80584 13.4117 8.46098 13.4765C8.64001 13.6908 8.86523 13.8968 9.09495 14.0861C9.44594 14.3748 9.86816 14.6719 10.3045 14.9568C11.1784 15.5279 12.148 16.074 12.8012 16.4295C13.5821 16.853 14.517 16.3653 14.6569 15.5138L16.1135 6.6864ZM5.04732 11.137L14.7519 7.05151L13.3928 15.2905C12.7518 14.9421 11.8284 14.4204 11.0058 13.8827C10.6267 13.6393 10.2606 13.376 9.90922 13.0941C9.81529 13.0174 9.72411 12.9373 9.63587 12.8541L12.1775 10.3131C12.2979 10.1928 12.3656 10.0296 12.3657 9.85934C12.3657 9.68913 12.2982 9.52586 12.1778 9.40546C12.0575 9.28506 11.8943 9.21738 11.7241 9.21732C11.5539 9.21726 11.3906 9.28482 11.2702 9.40514L8.48729 12.188C8.01631 12.1277 7.36052 11.9532 6.64057 11.7158C6.10459 11.5372 5.57288 11.3442 5.04732 11.137Z" fill="#1E1E1C"/>
</g>
<defs>
<clipPath id="clip0_2397_1232">
<rect width="15.4" height="15.4" fill="white" transform="translate(2.09949 2.80029)"/>
</clipPath>
</defs>
</svg>
