<svg width="77" height="105" viewBox="0 0 77 105" fill="none" xmlns="http://www.w3.org/2000/svg">
<g id="Group 17">
<path id="path1293" d="M30.0642 101.679H19.8395C19.4059 101.719 19.0037 101.923 18.7156 102.249C18.4275 102.576 18.2753 103 18.2903 103.435C18.3347 103.831 18.5121 104.2 18.7936 104.481C19.0751 104.763 19.4439 104.94 19.8395 104.984H30.0642C30.2812 104.998 30.4988 104.969 30.7045 104.898C30.9101 104.828 31.0999 104.717 31.263 104.573C31.426 104.429 31.5591 104.255 31.6547 104.06C31.7503 103.864 31.8064 103.652 31.82 103.435C31.8336 103.218 31.8042 103.001 31.7337 102.795C31.6632 102.589 31.5529 102.399 31.409 102.236C31.2652 102.073 31.0906 101.94 30.8953 101.845C30.7 101.749 30.4878 101.693 30.2708 101.679H30.0642Z" fill="#1E1E1C"/>
<path id="path1295" d="M56.2941 101.679H38.4267C37.993 101.719 37.5908 101.923 37.3028 102.249C37.0147 102.576 36.8625 103 36.8775 103.435C36.9218 103.831 37.0993 104.2 37.3808 104.481C37.6623 104.763 38.0311 104.94 38.4267 104.984H56.2941C56.7278 104.945 57.1299 104.741 57.418 104.415C57.7061 104.088 57.8583 103.664 57.8433 103.229C57.7989 102.833 57.6215 102.464 57.34 102.183C57.0585 101.901 56.6897 101.724 56.2941 101.679Z" fill="#1E1E1C"/>
<path id="path1297" d="M67.3479 92.5906H54.851C54.634 92.577 54.4165 92.6063 54.2108 92.6768C54.0051 92.7473 53.8153 92.8577 53.6523 93.0016C53.4893 93.1454 53.3562 93.3199 53.2606 93.5152C53.165 93.7105 53.1088 93.9228 53.0953 94.1398C53.0817 94.3568 53.111 94.5743 53.1815 94.78C53.252 94.9857 53.3624 95.1754 53.5062 95.3385C53.6501 95.5015 53.8247 95.6346 54.02 95.7302C54.2153 95.8258 54.4275 95.8819 54.6445 95.8955H67.5545C67.7722 95.8983 67.9884 95.8574 68.1901 95.7753C68.3919 95.6933 68.5751 95.5717 68.7291 95.4177C68.8831 95.2637 69.0048 95.0804 69.0868 94.8787C69.1689 94.6769 69.2097 94.4608 69.2069 94.243C69.222 93.8352 69.0807 93.4369 68.812 93.1298C68.5432 92.8226 68.1673 92.6298 67.761 92.5906H67.3479Z" fill="#1E1E1C"/>
<path id="path1299" d="M44.3176 95.8958C44.7559 95.9232 45.1871 95.7753 45.5164 95.4848C45.8457 95.1943 46.046 94.7849 46.0734 94.3466C46.1008 93.9083 45.953 93.4771 45.6624 93.1479C45.3719 92.8186 44.9625 92.6183 44.5242 92.5909H22.0092C21.5755 92.6302 21.1734 92.834 20.8853 93.1605C20.5972 93.487 20.445 93.9114 20.46 94.3466C20.5043 94.7422 20.6818 95.111 20.9633 95.3925C21.2448 95.674 21.6136 95.8514 22.0092 95.8958H44.3176Z" fill="#1E1E1C"/>
<path id="path1301" d="M14.4682 92.5909H8.58121C8.14756 92.6302 7.74539 92.834 7.45729 93.1605C7.1692 93.487 7.01704 93.9114 7.03201 94.3466C7.07637 94.7422 7.25385 95.111 7.53533 95.3925C7.81682 95.674 8.18561 95.8514 8.58121 95.8958H14.4682C14.6852 95.9094 14.9027 95.8801 15.1084 95.8096C15.3141 95.739 15.5039 95.6286 15.6669 95.4848C15.8299 95.3409 15.963 95.1665 16.0586 94.9712C16.1542 94.7759 16.2104 94.5636 16.2239 94.3466C16.2375 94.1296 16.2082 93.9121 16.1377 93.7064C16.0671 93.5007 15.9568 93.3109 15.813 93.1479C15.6691 92.9848 15.4945 92.8517 15.2992 92.7562C15.1039 92.6606 14.8917 92.6044 14.6747 92.5909H14.4682Z" fill="#1E1E1C"/>
<path id="path1303" d="M75.1974 45.0821V44.359C75.1974 44.1525 75.0941 44.1526 75.0941 44.0493C75.0941 43.946 74.9908 43.8427 74.9908 43.7394C74.9908 43.6361 74.8875 43.5329 74.681 43.5329C74.4744 43.5329 74.5777 43.4296 74.3711 43.4296H73.0285L63.0103 47.4574C62.6175 47.6186 62.2964 47.9168 62.1065 48.2966C61.9166 48.6764 61.8708 49.1121 61.9775 49.523C61.9775 49.6263 62.0808 49.6264 62.0808 49.7297C62.2318 50.0394 62.4668 50.3004 62.759 50.483C63.0511 50.6656 63.3887 50.7625 63.7333 50.7625C63.9452 50.7787 64.1578 50.7433 64.353 50.6592L68.6907 48.9034C59.0857 60.8839 50.6167 64.0856 44.1101 66.2545L42.1478 29.3834H52.0626C52.2796 29.397 52.4972 29.3677 52.7029 29.2972C52.9085 29.2267 53.0983 29.1164 53.2614 28.9726C53.4244 28.8287 53.5575 28.6541 53.6531 28.4588C53.7487 28.2635 53.8048 28.0512 53.8184 27.8342C53.832 27.6172 53.8027 27.3997 53.7321 27.194C53.6616 26.9884 53.5513 26.7986 53.4074 26.6355C53.2636 26.4725 53.089 26.3394 52.8937 26.2438C52.6984 26.1482 52.4862 26.0921 52.2692 26.0785H41.7346L41.6314 21.7408C44.4253 20.7273 46.7022 18.6454 47.9612 15.9531C49.2202 13.2609 49.3581 10.1788 48.3446 7.38488C47.3311 4.59094 45.2492 2.31404 42.5569 1.05507C39.8647 -0.203897 36.7826 -0.341807 33.9886 0.671681C31.8275 1.46706 29.9592 2.90037 28.6312 4.7817C27.3032 6.66303 26.5783 8.90351 26.5525 11.2062C26.5485 13.5303 27.2739 15.7971 28.6265 17.687C29.9791 19.577 31.8907 20.9949 34.0919 21.7408L33.9886 26.0785H23.7639C23.3257 26.0511 22.8945 26.199 22.5652 26.4895C22.2359 26.7801 22.0356 27.1895 22.0082 27.6277C21.9808 28.066 22.1286 28.4972 22.4192 28.8264C22.7097 29.1557 23.1191 29.356 23.5574 29.3834H33.7821L32.1296 66.2545C25.7262 63.9823 17.154 60.8839 7.54898 49.2133L11.8867 50.969C11.9742 51.0346 12.0761 51.0783 12.184 51.0963C12.2918 51.1143 12.4024 51.106 12.5064 51.0722C12.851 51.0722 13.1886 50.9755 13.4807 50.7929C13.7729 50.6102 14.0079 50.3491 14.1589 50.0394C14.2998 49.6121 14.2836 49.1484 14.1133 48.7319C13.9429 48.3154 13.6295 47.9734 13.2294 47.7673L3.21121 43.7394H1.86859C1.76531 43.7394 1.76529 43.8426 1.55873 43.8426C1.35217 43.8426 1.45546 44.0493 1.2489 44.0493C1.20986 44.0901 1.18033 44.139 1.16248 44.1926C1.14462 44.2462 1.13886 44.303 1.14561 44.359C1.04233 44.4623 1.04233 44.4624 1.04233 44.6689V45.3918L0.00952682 56.0297C-0.035301 56.4389 0.0791982 56.8495 0.329219 57.1765C0.579241 57.5034 0.94559 57.7215 1.35219 57.7854H1.55873C1.96722 57.803 2.36681 57.6627 2.67451 57.3935C2.98222 57.1242 3.17442 56.7468 3.21121 56.3396V56.2362L3.62433 51.7953C7.96208 63.7757 17.154 69.6627 24.4869 74.4136C30.787 78.4415 35.8477 81.6432 36.3641 87.4269C36.4296 87.8037 36.6163 88.1489 36.8959 88.4099C37.1756 88.6709 37.5328 88.8335 37.9133 88.8728H38.533C38.8925 88.7826 39.2232 88.6026 39.4941 88.3497C39.7651 88.0968 39.9674 87.7793 40.0822 87.4269C40.7019 81.7465 45.6593 78.4415 51.9594 74.4136C59.3955 69.5595 68.4842 63.7757 72.6154 51.4854L73.0285 55.9265C73.0833 56.3262 73.2807 56.6927 73.5843 56.9584C73.888 57.2241 74.2775 57.3712 74.681 57.3724H74.7842C75.2114 57.3173 75.6041 57.1088 75.889 56.7858C76.174 56.4628 76.332 56.0473 76.3334 55.6166L75.1974 45.0821ZM30.2706 11.1029C30.3619 9.04278 31.256 7.10019 32.7617 5.69107C34.2673 4.28195 36.2647 3.51824 38.3264 3.56344C40.3055 3.62796 42.1859 4.44307 43.5861 5.84324C44.9863 7.24342 45.8013 9.12384 45.8658 11.1029C45.8513 12.5577 45.4396 13.9809 44.6751 15.2186C43.9106 16.4564 42.8224 17.4617 41.5281 18.126C41.2943 17.209 40.7063 16.4221 39.8931 15.938C39.0799 15.454 38.1079 15.3123 37.1903 15.544C36.57 15.7075 36.0041 16.0326 35.5505 16.4862C35.0969 16.9398 34.7717 17.5057 34.6083 18.126C33.3169 17.4581 32.2312 16.4519 31.4672 15.215C30.7032 13.978 30.2896 12.5567 30.2706 11.1029ZM38.0166 22.1538H38.3264L38.4297 25.7686H37.3969L37.5002 22.1538H38.0166ZM49.8938 71.625C45.1429 74.7234 40.4953 77.6152 38.0166 81.953C35.6411 77.7185 30.9935 74.7234 26.1394 71.625C20.2524 67.9069 13.8491 63.6725 9.61458 56.4429C15.6687 62.5962 23.2114 67.0791 31.5099 69.4561C32.0582 69.5719 32.5823 69.7815 33.0591 70.0758H33.4722C33.5844 70.09 33.6983 70.0789 33.8056 70.0431C33.9129 70.0074 34.0107 69.948 34.0919 69.8693C34.1807 69.8548 34.2646 69.819 34.3365 69.765C34.4084 69.7111 34.4663 69.6405 34.505 69.5594L34.6083 69.4561C34.7116 69.2496 34.7116 69.1462 34.9182 69.1462C35.1247 69.1462 34.9182 68.9397 35.0214 68.9397V68.2168L37.087 28.9704H38.4297L40.4953 68.2168V68.8365C40.4953 68.85 40.4979 68.8634 40.5031 68.8759C40.5083 68.8885 40.516 68.8999 40.5256 68.9095C40.5351 68.9191 40.5465 68.9267 40.5591 68.9319C40.5716 68.9371 40.585 68.9397 40.5986 68.9397C40.5986 69.1463 40.7018 69.1463 40.7018 69.2496L40.8051 69.4561C40.9084 69.5594 40.9084 69.5594 41.115 69.5594C41.3215 69.5594 41.2182 69.6627 41.2182 69.766C41.3215 69.766 41.6314 69.8693 41.8379 69.8693H42.4576C43.0058 69.7535 43.5299 69.5439 44.0068 69.2496C49.5839 67.2873 57.2267 64.8085 65.9022 56.2362C62.1841 63.6724 55.6775 67.8036 49.8938 71.625Z" fill="#1E1E1C"/>
</g>
</svg>
